<?xml version="1.0" encoding="UTF-8" standalone="no"?>
<!-- Created with Inkscape (http://www.inkscape.org/) -->

<svg
   width="293.9856"
   height="248.72835"
   viewBox="0 0 77.783688 65.809373"
   version="1.1"
   id="svg1"
   xmlns:xlink="http://www.w3.org/1999/xlink"
   xmlns="http://www.w3.org/2000/svg"
   xmlns:svg="http://www.w3.org/2000/svg">
  <defs
     id="defs1">
    <linearGradient
       id="swatch87">
      <stop
         style="stop-color:#ffffff;stop-opacity:1;"
         offset="0"
         id="stop87" />
    </linearGradient>
    <linearGradient
       id="swatch84">
      <stop
         style="stop-color:#ffffff;stop-opacity:1;"
         offset="0"
         id="stop85" />
    </linearGradient>
    <linearGradient
       id="swatch71">
      <stop
         style="stop-color:#ffffff;stop-opacity:1;"
         offset="0"
         id="stop71" />
    </linearGradient>
    <linearGradient
       id="swatch70">
      <stop
         style="stop-color:#ffffff;stop-opacity:1;"
         offset="0"
         id="stop70" />
    </linearGradient>
    <linearGradient
       xlink:href="#swatch70"
       id="linearGradient70"
       x1="61.387039"
       y1="171.38187"
       x2="119.85109"
       y2="171.38187"
       gradientUnits="userSpaceOnUse"
       gradientTransform="scale(0.26458333)" />
    <linearGradient
       xlink:href="#swatch84"
       id="linearGradient86"
       gradientUnits="userSpaceOnUse"
       x1="25.295918"
       y1="179.09448"
       x2="61.094288"
       y2="179.09448"
       gradientTransform="scale(0.26458333)" />
    <linearGradient
       xlink:href="#swatch70"
       id="linearGradient87"
       x1="25.455454"
       y1="161.76714"
       x2="101.10233"
       y2="161.76714"
       gradientUnits="userSpaceOnUse"
       gradientTransform="scale(0.26458333)" />
  </defs>
  <g
     id="g51"
     style="fill:#4d4d4d">
    <path
       d="m 21.951955,38.424826 c 2.413241,3.423377 5.955306,2.492716 9.793666,0.419204 v 5.025159 l -9.793666,-1.270104 z"
       style="fill:#e9e9ff;fill-rule:evenodd;stroke:none;stroke-linejoin:round"
       id="path62" />
    <path
       d="M 6.696393,42.869851 V 48.39296 L 21.951955,42.599085 V 38.424826 Z"
       style="fill:#353564;fill-rule:evenodd;stroke:none;stroke-linejoin:round"
       id="path63" />
    <path
       d="m 6.696393,48.39296 9.467314,3.471898 15.581914,-7.995669 -9.793666,-1.270104 z"
       style="fill:#afafde;fill-rule:evenodd;stroke:none;stroke-linejoin:round"
       id="path64" />
    <path
       d="m 6.696393,42.869851 c 2.7982176,4.469435 5.85084,6.204024 9.467314,1.877198 L 31.745621,38.84403 c -3.34731,0.660225 -7.004882,4.319654 -9.793666,-0.419204 z"
       style="fill:#4d4d9f;fill-rule:evenodd;stroke:none;stroke-linejoin:round"
       id="path65" />
    <path
       d="m 16.163707,44.747049 v 7.117809 L 31.745621,43.869189 V 38.84403 Z"
       style="fill:#1a1a1a;fill-rule:evenodd;stroke:none;stroke-linejoin:round"
       id="path66" />
    <path
       d="m 6.696393,42.869851 c 3.395479,5.899291 6.479643,4.949664 9.467314,1.877198 v 7.117809 L 6.696393,48.39296 Z"
       style="fill:#8686bf;fill-rule:evenodd;stroke:none;stroke-linejoin:round"
       id="path67" />
  </g>
  <path
     style="fill:#4d4d4d;stroke-width:0.0769699"
     d="m 16.202191,48.266622 c 0,-1.929702 0.01349,-3.50855 0.02998,-3.50855 0.02312,0 14.27175,-5.392705 15.229322,-5.763868 l 0.211669,-0.08205 -0.0021,2.480379 -0.0021,2.480379 -7.660875,3.925472 c -4.213481,2.159008 -7.693477,3.937016 -7.733325,3.951126 -0.0446,0.01579 -0.07245,-1.322919 -0.07245,-3.482893 z"
     id="path68" />
  <path
     style="fill:#1a1a1a;stroke-width:0.0769699"
     d="m 16.260078,50.011827 c -0.02331,-0.921057 -0.02346,-2.477273 -3.17e-4,-3.458258 l 0.04206,-1.783609 0.662165,-0.248206 c 5.935649,-2.224931 11.443502,-4.333763 11.463785,-4.389225 0.01421,-0.03882 0.05145,-0.05474 0.08279,-0.03538 0.06152,0.03802 2.097665,-0.707599 2.161744,-0.791618 0.02133,-0.02795 0.07339,-0.05275 0.115726,-0.05511 0.159047,-0.0089 0.500309,-0.129749 0.500359,-0.177234 2.9e-5,-0.02716 0.09164,-0.05469 0.203586,-0.06118 l 0.203531,-0.0118 -0.05597,2.436257 c -0.03078,1.33994 -0.06178,2.440159 -0.06889,2.444927 -0.03359,0.02254 -10.106971,5.176052 -12.528142,6.409354 l -2.740028,1.395725 z"
     id="path69" />
  <path
     style="fill:#1a1a1a;stroke:url(#linearGradient70);stroke-width:0.0769699;stroke-opacity:1"
     d="m 16.328815,51.018035 c -0.06362,-0.752642 -0.06381,-4.796343 -2.56e-4,-5.612554 l 0.04847,-0.622593 2.818197,-1.059868 c 1.550009,-0.582928 4.169021,-1.581047 5.820028,-2.218045 1.651007,-0.636995 3.512811,-1.340786 4.137339,-1.563981 0.624531,-0.223197 1.238981,-0.457427 1.365446,-0.520517 0.126463,-0.06309 0.333793,-0.137517 0.460735,-0.165399 0.126942,-0.02788 0.250563,-0.08266 0.274711,-0.12174 0.02416,-0.03908 0.127998,-0.07105 0.230767,-0.07105 h 0.18686 l -0.03988,1.558645 c -0.02193,0.857252 -0.059,1.939813 -0.08236,2.405692 l -0.04248,0.847047 -4.513239,2.308723 c -2.482283,1.269799 -5.886066,3.009445 -7.563965,3.865885 l -3.050725,1.557163 z"
     id="path70" />
  <path
     style="fill:#1a1a1a;stroke:url(#linearGradient86);stroke-width:0.0544261;stroke-opacity:1"
     d="m 11.429466,50.106598 -4.6806385,-1.722766 -0.014126,-2.6905 -0.014126,-2.6905 0.4423082,0.67719 c 0.7681061,1.176002 1.4037141,1.932244 2.08353,2.478979 0.7635043,0.61404 1.3047743,0.867749 2.1378623,1.002078 1.275004,0.205584 2.726848,-0.429075 4.216818,-1.843339 l 0.536222,-0.508976 v 3.516013 c 0,1.933808 -0.0061,3.513445 -0.01361,3.510301 -0.0075,-0.0031 -2.119894,-0.78096 -4.694245,-1.72848 z"
     id="path71" />
  <path
     style="fill:#1a1a1a;stroke:url(#linearGradient87);stroke-width:0.264583;stroke-dasharray:none;stroke-opacity:1"
     d="M 11.266188,47.082707 C 11.056648,47.041897 10.763007,46.955265 10.613653,46.890188 9.8718697,46.566986 8.861735,45.720902 8.0828588,44.77041 7.6158534,44.200505 6.707598,42.894122 6.764893,42.874723 c 0.021098,-0.0071 1.1772252,-0.344463 2.5691711,-0.749599 1.3919459,-0.405135 2.8614479,-0.833353 3.2655619,-0.951592 0.404113,-0.11824 1.273569,-0.372616 1.932124,-0.565283 0.658555,-0.192664 2.519925,-0.733573 4.136378,-1.202017 1.616453,-0.468445 3.010329,-0.874898 3.097503,-0.903227 0.08717,-0.02833 0.163088,-0.04527 0.1687,-0.03765 0.0056,0.0076 0.141121,0.209786 0.301133,0.44926 0.586904,0.878361 1.389284,1.528114 2.201823,1.782993 0.447712,0.140438 1.420467,0.163642 1.950047,0.04651 0.174496,-0.03859 0.325713,-0.06172 0.336035,-0.0514 0.01032,0.01032 -0.867198,0.353872 -1.950047,0.763447 -1.082849,0.409572 -3.46281,1.310807 -5.288804,2.00274 l -3.319987,1.258062 -0.6259,0.570857 c -1.598289,1.457732 -2.993641,2.04393 -4.272443,1.794883 z"
     id="path86" />
  <path
     style="fill:#1a1a1a;stroke:#000000;stroke-width:0.0544261;stroke-dasharray:none;stroke-opacity:1"
     d="m 16.381558,50.729948 c -0.05869,-1.173959 -0.01119,-5.783955 0.06033,-5.855475 0.03234,-0.03234 1.599618,-0.642662 3.482838,-1.356267 1.883221,-0.713608 4.269001,-1.621478 5.301735,-2.017493 1.569775,-0.601948 4.376176,-1.66292 5.68752,-2.150189 0.179605,-0.06674 0.394012,-0.153239 0.476456,-0.192223 0.08245,-0.03898 0.165799,-0.05498 0.18523,-0.03556 0.04129,0.04129 -0.08494,4.209907 -0.136779,4.517049 l -0.03507,0.207825 -5.95965,3.046608 c -3.277808,1.675636 -6.649071,3.399102 -7.491697,3.829926 l -1.532046,0.78332 z"
     id="path87" />
  <path
     style="fill:#1a1a1a;stroke:#000000;stroke-width:0.264583;stroke-dasharray:none;stroke-opacity:1"
     d="m 16.445193,50.95817 c -0.04364,-0.560634 -0.03555,-4.393155 0.01128,-5.345488 l 0.03461,-0.703869 0.517047,-0.209542 c 0.511568,-0.207319 10.118584,-3.869057 13.007821,-4.957963 0.823193,-0.310248 1.505455,-0.541848 1.516136,-0.51467 0.02577,0.06554 -0.09524,3.841358 -0.136511,4.25976 l -0.03221,0.326556 -7.399035,3.782608 c -4.06947,2.080434 -7.418164,3.789542 -7.441544,3.798017 -0.02338,0.0085 -0.0583,-0.18746 -0.0776,-0.435409 z"
     id="path88" />
  <path
     style="fill:#1a1a1a;stroke:#000000;stroke-width:0.0544261;stroke-dasharray:none;stroke-opacity:1"
     d="M 11.361434,50.025929 6.7760407,48.331342 V 45.80274 c 0,-1.390732 0.019947,-2.505337 0.044327,-2.4769 0.024381,0.02844 0.3110931,0.427411 0.6371405,0.886606 0.9672063,1.362181 1.8316048,2.187773 2.8008338,2.675094 0.562994,0.283067 0.973955,0.381632 1.587175,0.380661 0.642117,-0.0011 1.081159,-0.104217 1.70942,-0.401828 0.647879,-0.306904 1.212978,-0.692354 1.938587,-1.322298 l 0.589368,-0.511664 v 3.349765 c 0,2.646574 -0.01428,3.348567 -0.06803,3.344053 -0.03742,-0.0031 -2.131459,-0.768279 -4.653425,-1.7003 z"
     id="path89" />
  <path
     style="fill:#1a1a1a;stroke:#000000;stroke-width:0.0544261;stroke-dasharray:none;stroke-opacity:1"
     d="m 16.384493,51.364565 c -0.06148,-0.244436 -0.09405,-4.083355 -0.04528,-5.336384 0.03618,-0.929614 0.06108,-1.169112 0.125709,-1.209289 0.154185,-0.09585 13.474479,-5.173546 14.52229,-5.535895 0.468662,-0.162071 0.571706,-0.181899 0.614611,-0.118272 0.03082,0.04571 0.03884,0.5031 0.01995,1.137751 -0.03556,1.193945 -0.136875,3.557929 -0.152985,3.569631 -0.0058,0.0042 -2.900553,1.48299 -6.432803,3.286183 -3.53225,1.803194 -6.892214,3.520951 -7.466588,3.817239 -0.574375,0.296289 -1.067477,0.538708 -1.095783,0.538708 -0.02831,0 -0.0684,-0.06735 -0.08911,-0.149672 z m 9.766545,-5.005705 5.088165,-2.600381 0.03482,-0.244893 c 0.049,-0.344646 0.172019,-4.085063 0.135557,-4.121526 -0.01651,-0.01651 -0.220477,0.03757 -0.453287,0.120142 -0.759401,0.26936 -11.907237,4.507786 -13.544994,5.149832 l -0.821426,0.322022 -0.03578,0.987922 c -0.04554,1.257109 -0.04581,4.421013 -4.24e-4,4.901525 l 0.03458,0.366149 2.237318,-1.140206 c 1.230525,-0.627113 4.526992,-2.310376 7.325483,-3.740586 z"
     id="path91" />
</svg>
