<?xml version="1.0" encoding="UTF-8" standalone="no"?>
<!-- Created with Inkscape (http://www.inkscape.org/) -->

<svg
   width="94.925209"
   height="51.151062"
   viewBox="0 0 25.115628 13.533718"
   version="1.1"
   id="svg1"
   sodipodi:docname="g23.svg"
   inkscape:export-filename="g23.svg"
   inkscape:export-xdpi="7.1840253"
   inkscape:export-ydpi="7.1840253"
   xmlns:inkscape="http://www.inkscape.org/namespaces/inkscape"
   xmlns:sodipodi="http://sodipodi.sourceforge.net/DTD/sodipodi-0.dtd"
   xmlns:xlink="http://www.w3.org/1999/xlink"
   xmlns="http://www.w3.org/2000/svg"
   xmlns:svg="http://www.w3.org/2000/svg">
  <sodipodi:namedview
     id="namedview1"
     pagecolor="#ffffff"
     bordercolor="#000000"
     borderopacity="0.25"
     inkscape:showpageshadow="2"
     inkscape:pageopacity="0.0"
     inkscape:pagecheckerboard="0"
     inkscape:deskcolor="#d1d1d1"
     showguides="false" />
  <defs
     id="defs1">
    <linearGradient
       id="swatch87"
       inkscape:swatch="solid">
      <stop
         style="stop-color:#ffffff;stop-opacity:1;"
         offset="0"
         id="stop87" />
    </linearGradient>
    <linearGradient
       id="swatch84">
      <stop
         style="stop-color:#ffffff;stop-opacity:1;"
         offset="0"
         id="stop85" />
    </linearGradient>
    <linearGradient
       id="swatch71"
       inkscape:swatch="solid">
      <stop
         style="stop-color:#ffffff;stop-opacity:1;"
         offset="0"
         id="stop71" />
    </linearGradient>
    <linearGradient
       id="swatch70"
       inkscape:swatch="solid">
      <stop
         style="stop-color:#ffffff;stop-opacity:1;"
         offset="0"
         id="stop70" />
    </linearGradient>
    <linearGradient
       inkscape:collect="always"
       xlink:href="#swatch70"
       id="linearGradient70"
       x1="61.387039"
       y1="171.38187"
       x2="119.85109"
       y2="171.38187"
       gradientUnits="userSpaceOnUse"
       gradientTransform="matrix(0.26458333,0,0,0.26458333,-6.6299929,-38.331139)" />
    <linearGradient
       inkscape:collect="always"
       xlink:href="#swatch84"
       id="linearGradient86"
       gradientUnits="userSpaceOnUse"
       x1="25.295918"
       y1="179.09448"
       x2="61.094288"
       y2="179.09448"
       gradientTransform="matrix(0.26458333,0,0,0.26458333,-6.6299929,-38.331139)" />
    <linearGradient
       inkscape:collect="always"
       xlink:href="#swatch70"
       id="linearGradient87"
       x1="25.455454"
       y1="161.76714"
       x2="101.10233"
       y2="161.76714"
       gradientUnits="userSpaceOnUse"
       gradientTransform="matrix(0.26458333,0,0,0.26458333,-6.6299929,-38.331139)" />
  </defs>
  <g
     id="g51"
     style="fill:#4d4d4d"
     inkscape:export-filename=".\g51.svg"
     inkscape:export-xdpi="20.23"
     inkscape:export-ydpi="20.23"
     transform="translate(-6.6299929,-38.331139)">
    <path
       d="m 21.951955,38.424826 c 2.413241,3.423377 5.955306,2.492716 9.793666,0.419204 v 5.025159 l -9.793666,-1.270104 z"
       style="fill:#e9e9ff;fill-rule:evenodd;stroke:none;stroke-linejoin:round"
       id="path62"
       sodipodi:nodetypes="ccccc" />
    <path
       d="M 6.696393,42.869851 V 48.39296 L 21.951955,42.599085 V 38.424826 Z"
       style="fill:#353564;fill-rule:evenodd;stroke:none;stroke-linejoin:round"
       id="path63" />
    <path
       d="m 6.696393,48.39296 9.467314,3.471898 15.581914,-7.995669 -9.793666,-1.270104 z"
       style="fill:#afafde;fill-rule:evenodd;stroke:none;stroke-linejoin:round"
       id="path64" />
    <path
       d="m 6.696393,42.869851 c 2.7982176,4.469435 5.85084,6.204024 9.467314,1.877198 L 31.745621,38.84403 c -3.34731,0.660225 -7.004882,4.319654 -9.793666,-0.419204 z"
       style="fill:#4d4d9f;fill-rule:evenodd;stroke:none;stroke-linejoin:round"
       id="path65"
       sodipodi:nodetypes="ccccc" />
    <path
       d="m 16.163707,44.747049 v 7.117809 L 31.745621,43.869189 V 38.84403 Z"
       style="fill:#1a1a1a;fill-rule:evenodd;stroke:none;stroke-linejoin:round"
       id="path66" />
    <path
       d="m 6.696393,42.869851 c 3.395479,5.899291 6.479643,4.949664 9.467314,1.877198 v 7.117809 L 6.696393,48.39296 Z"
       style="fill:#8686bf;fill-rule:evenodd;stroke:none;stroke-linejoin:round"
       id="path67"
       sodipodi:nodetypes="ccccc" />
  </g>
  <path
     style="fill:#4d4d4d;stroke-width:0.0769699"
     d="m 9.5721981,9.9354828 c 0,-1.9297014 0.013494,-3.5085496 0.029985,-3.5085496 0.023117,0 14.2717499,-5.3927056 15.2293219,-5.76386842 l 0.211669,-0.0820446 -0.0021,2.48037872 -0.0021,2.4803788 -7.660875,3.925472 c -4.213481,2.1590083 -7.6934771,3.9370163 -7.7333249,3.9511263 -0.044603,0.01579 -0.07245,-1.32292 -0.07245,-3.4828932 z"
     id="path68" />
  <path
     style="fill:#1a1a1a;stroke-width:0.0769699"
     d="M 9.6300855,11.680688 C 9.606773,10.759631 9.6066249,9.2034152 9.629768,8.2224301 L 9.6718243,6.438821 10.33399,6.1906154 c 5.935648,-2.2249315 11.443501,-4.3337639 11.463784,-4.3892258 0.01421,-0.038825 0.05145,-0.054745 0.08279,-0.03538 0.06152,0.038023 2.097664,-0.707599 2.161743,-0.79161745 0.02133,-0.0279479 0.07339,-0.0527473 0.115726,-0.0551101 0.159047,-0.008864 0.500309,-0.12974902 0.500359,-0.17723379 2.9e-5,-0.0271595 0.09164,-0.0546894 0.203586,-0.061177 l 0.203531,-0.0118004 -0.05596,2.43625684 c -0.03078,1.3399399 -0.06178,2.4401594 -0.06889,2.4449272 -0.03359,0.022543 -10.106971,5.1760521 -12.528142,6.4093541 l -2.7400275,1.395724 z"
     id="path69" />
  <path
     style="fill:#1a1a1a;stroke:url(#linearGradient70);stroke-width:0.0769699;stroke-opacity:1"
     d="M 9.6988224,12.686895 C 9.6352007,11.934254 9.635016,7.8905527 9.698566,7.0743422 L 9.7470411,6.4517485 12.565238,5.3918806 c 1.550009,-0.5829273 4.169021,-1.5810468 5.820028,-2.2180444 1.651008,-0.6369949 3.512812,-1.3407866 4.137339,-1.5639811 0.624531,-0.2231972 1.238981,-0.4574276 1.365446,-0.5205175 0.126463,-0.063087 0.333793,-0.13751716 0.460735,-0.16539895 0.126942,-0.0278791 0.250563,-0.0826638 0.274712,-0.12174008 0.02416,-0.0390763 0.127997,-0.0710486 0.230767,-0.0710486 h 0.186859 l -0.03988,1.55864453 c -0.02193,0.8572527 -0.059,1.9398139 -0.08236,2.4056922 l -0.04248,0.8470477 -4.513239,2.3087224 C 17.880883,9.1210557 14.4771,10.860702 12.799201,11.717142 l -3.0507245,1.557163 z"
     id="path70" />
  <path
     style="fill:#1a1a1a;stroke:url(#linearGradient86);stroke-width:0.0544261;stroke-opacity:1"
     d="M 4.7994733,11.775459 0.11883466,10.052693 0.10470856,7.362193 0.09058245,4.6716927 0.53289064,5.3488832 C 1.3009967,6.5248846 1.9366047,7.2811273 2.6164206,7.8278623 3.3799247,8.441902 3.9211948,8.695611 4.754283,8.8299399 6.0292873,9.0355238 7.4811312,8.4008651 8.9711007,6.9866011 L 9.5073236,6.4776248 v 3.5160134 c 0,1.9338078 -0.00612,3.5134448 -0.013608,3.5103008 -0.00748,-0.0031 -2.1198937,-0.78096 -4.6942448,-1.72848 z"
     id="path71" />
  <path
     style="fill:#1a1a1a;stroke:url(#linearGradient87);stroke-width:0.264583;stroke-dasharray:none;stroke-opacity:1"
     d="M 4.6361952,8.7515677 C 4.426655,8.7107583 4.1330141,8.6241258 3.98366,8.5590489 3.2418768,8.2358471 2.2317421,7.3897626 1.4528659,6.4392708 0.98586047,5.8693662 0.07760517,4.5629834 0.13490016,4.5435841 0.15599803,4.5364404 1.3121253,4.1991204 2.7040712,3.7939852 4.0960169,3.3888499 5.5655196,2.9606323 5.9696328,2.8423927 6.3737462,2.724153 7.243202,2.4697773 7.901757,2.2771104 8.5603118,2.0844461 10.421682,1.5435372 12.038135,1.0750925 c 1.616453,-0.46844482 3.010329,-0.87489773 3.097503,-0.90322667 0.08717,-0.0283289 0.163088,-0.0452729 0.1687,-0.0376529 0.0056,0.00762 0.141121,0.20978548 0.301133,0.44925985 0.586904,0.87836112 1.389284,1.52811432 2.201823,1.78299272 0.447712,0.1404382 1.420467,0.1636421 1.950047,0.046514 0.174496,-0.038595 0.325713,-0.061725 0.336035,-0.051401 0.01032,0.010319 -0.867198,0.3538723 -1.950047,0.7634473 -1.082849,0.4095723 -3.46281,1.3108067 -5.288804,2.0027397 L 9.5345378,6.3858276 8.9086384,6.9566846 C 7.3103495,8.4144171 5.9149968,9.0006147 4.6361952,8.7515677 Z"
     id="path86" />
  <path
     style="fill:#1a1a1a;stroke:#000000;stroke-width:0.0544261;stroke-dasharray:none;stroke-opacity:1"
     d="M 9.7515647,12.398809 C 9.6928785,11.22485 9.7403781,6.6148536 9.8118987,6.543334 9.84424,6.510994 11.411517,5.9006717 13.294737,5.1870667 15.177958,4.473459 17.563738,3.5655889 18.596472,3.1695738 c 1.569775,-0.6019483 4.376176,-1.6629195 5.68752,-2.1501894 0.179605,-0.0667385 0.394012,-0.15323868 0.476457,-0.19222239 0.08245,-0.0389837 0.165798,-0.0549831 0.185229,-0.0355547 0.04129,0.0412856 -0.08494,4.20990709 -0.136779,4.51704859 l -0.03507,0.2078249 -5.95965,3.0466083 c -3.277808,1.6756349 -6.649071,3.3991019 -7.491697,3.8299259 l -1.532046,0.78332 z"
     id="path87" />
  <path
     style="fill:#1a1a1a;stroke:#000000;stroke-width:0.264583;stroke-dasharray:none;stroke-opacity:1"
     d="M 9.8151999,12.627031 C 9.7715587,12.066397 9.7796457,8.233876 9.8264791,7.2815427 L 9.8610937,6.5776743 10.378141,6.3681323 C 10.889709,6.1608127 20.496725,2.4990747 23.385962,1.4101687 24.209155,1.099921 24.891417,0.86832059 24.902099,0.89549859 24.927869,0.96104117 24.806856,4.736857 24.765587,5.1552585 l -0.03221,0.3265566 -7.399035,3.7826077 c -4.06947,2.0804342 -7.4181643,3.7895422 -7.4415437,3.7980172 -0.023379,0.0085 -0.0583,-0.18746 -0.0776,-0.435409 z"
     id="path88" />
  <path
     style="fill:#1a1a1a;stroke:#000000;stroke-width:0.0544261;stroke-dasharray:none;stroke-opacity:1"
     d="M 4.7314407,11.69479 0.14604785,10.000203 V 7.4716008 c 0,-1.390732 0.0199469,-2.5053369 0.044327,-2.4768994 0.0243813,0.028437 0.31109311,0.4274105 0.63714047,0.8866055 C 1.7947216,7.2434877 2.6591201,8.0690803 3.6283494,8.5564004 4.1913436,8.8394676 4.6023045,8.9380328 5.2155245,8.9370618 5.8576415,8.9360034 6.2966826,8.832845 6.9249442,8.5352338 7.5728228,8.2283303 8.1379217,7.84288 8.8635307,7.2129362 L 9.4528988,6.7012718 v 3.3497652 c 0,2.646574 -0.014282,3.348567 -0.068033,3.344053 -0.037418,-0.0031 -2.1314592,-0.768279 -4.6534251,-1.7003 z"
     id="path89" />
  <path
     style="fill:#1a1a1a;stroke:#000000;stroke-width:0.0544261;stroke-dasharray:none;stroke-opacity:1"
     d="M 9.7544997,13.033426 C 9.6930203,12.78899 9.660448,8.9500713 9.7092218,7.6970417 9.7454065,6.7674282 9.7703033,6.52793 9.8349314,6.487753 9.9891166,6.3918998 23.30941,1.314207 24.357221,0.95185749 c 0.468662,-0.16207052 0.571706,-0.1818984 0.614611,-0.1182714 0.03082,0.0457121 0.03884,0.50309991 0.01995,1.13775061 -0.03556,1.1939455 -0.136875,3.5579288 -0.152985,3.5696313 -0.0058,0.00421 -2.900553,1.4829896 -6.432803,3.2861832 -3.53225,1.8031938 -6.892214,3.5209508 -7.466588,3.8172388 -0.574374,0.296289 -1.0674766,0.538708 -1.0957825,0.538708 -0.028306,0 -0.068406,-0.06735 -0.089111,-0.149672 z M 19.521045,8.0277206 24.60921,5.4273401 24.644027,5.182447 c 0.04899,-0.3446462 0.172018,-4.0850634 0.135556,-4.1215256 -0.01651,-0.01651 -0.220477,0.037565 -0.453287,0.120142 -0.759401,0.269359 -11.907237,4.5077855 -13.544994,5.1498314 L 9.9598764,6.6529165 9.9240918,7.6408389 c -0.045535,1.2571095 -0.045812,4.4210131 -4.233e-4,4.9015251 l 0.034582,0.366149 2.2373175,-1.140206 c 1.230525,-0.627113 4.526992,-2.3103759 7.325483,-3.7405864 z"
     id="path91" />
</svg>
