<svg width="94.925" height="51.151" viewBox="0 0 25.116 13.534" xmlns:xlink="http://www.w3.org/1999/xlink" xmlns="http://www.w3.org/2000/svg">
    <defs>
        <linearGradient id="b">
            <stop style="stop-color:#fff;stop-opacity:1" offset="0"/>
        </linearGradient>
        <linearGradient id="a">
            <stop style="stop-color:#fff;stop-opacity:1" offset="0"/>
        </linearGradient>
        <linearGradient xlink:href="#a" id="c" x1="61.387" y1="171.382" x2="119.851" y2="171.382" gradientUnits="userSpaceOnUse" gradientTransform="matrix(.26458 0 0 .26458 -6.63 -38.331)"/>
        <linearGradient xlink:href="#b" id="d" gradientUnits="userSpaceOnUse" x1="25.296" y1="179.094" x2="61.094" y2="179.094" gradientTransform="matrix(.26458 0 0 .26458 -6.63 -38.331)"/>
        <linearGradient xlink:href="#a" id="e" x1="25.455" y1="161.767" x2="101.102" y2="161.767" gradientUnits="userSpaceOnUse" gradientTransform="matrix(.26458 0 0 .26458 -6.63 -38.331)"/>
    </defs>
    <g style="fill:#4d4d4d">
        <path d="M21.952 38.425c2.413 3.423 5.955 2.493 9.794.419v5.025l-9.794-1.27z" style="fill:#e9e9ff;fill-rule:evenodd;stroke:none;stroke-linejoin:round" transform="translate(-6.63 -38.331)"/>
        <path d="M6.696 42.87v5.523l15.256-5.794v-4.174Z" style="fill:#353564;fill-rule:evenodd;stroke:none;stroke-linejoin:round" transform="translate(-6.63 -38.331)"/>
        <path d="m6.696 48.393 9.468 3.472 15.582-7.996-9.794-1.27z" style="fill:#afafde;fill-rule:evenodd;stroke:none;stroke-linejoin:round" transform="translate(-6.63 -38.331)"/>
        <path d="M6.696 42.87c2.799 4.47 5.851 6.204 9.468 1.877l15.582-5.903c-3.348.66-7.005 4.32-9.794-.42z" style="fill:#4d4d9f;fill-rule:evenodd;stroke:none;stroke-linejoin:round" transform="translate(-6.63 -38.331)"/>
        <path d="M16.164 44.747v7.118l15.582-7.996v-5.025Z" style="fill:#1a1a1a;fill-rule:evenodd;stroke:none;stroke-linejoin:round" transform="translate(-6.63 -38.331)"/>
        <path d="M6.696 42.87c3.396 5.9 6.48 4.95 9.468 1.877v7.118l-9.468-3.472Z" style="fill:#8686bf;fill-rule:evenodd;stroke:none;stroke-linejoin:round" transform="translate(-6.63 -38.331)"/>
    </g>
    <path style="fill:#4d4d4d;stroke-width:.0769699" d="M9.572 9.935c0-1.93.014-3.508.03-3.508.023 0 14.272-5.393 15.23-5.764l.211-.082-.002 2.48-.002 2.48-7.66 3.926a1887.915 1887.915 0 0 1-7.734 3.951c-.045.016-.073-1.323-.073-3.483z"/>
    <path style="fill:#1a1a1a;stroke-width:.0769699" d="M9.63 11.68a85.798 85.798 0 0 1 0-3.458l.042-1.783.662-.248C16.27 3.966 21.777 1.857 21.798 1.8c.014-.038.051-.054.083-.035.061.038 2.097-.708 2.161-.792a.176.176 0 0 1 .116-.055c.16-.009.5-.13.5-.177 0-.027.092-.055.204-.061l.204-.012-.056 2.436c-.031 1.34-.062 2.44-.07 2.445a6776.56 6776.56 0 0 1-12.527 6.41l-2.74 1.395z"/>
    <path style="fill:#1a1a1a;stroke:url(#c);stroke-width:.0769699;stroke-opacity:1" d="M9.699 12.687c-.064-.753-.064-4.796 0-5.613l.048-.622 2.818-1.06c1.55-.583 4.17-1.581 5.82-2.218 1.651-.637 3.513-1.341 4.138-1.564.624-.223 1.239-.458 1.365-.52.127-.064.334-.138.46-.166.128-.028.251-.083.275-.122.025-.039.128-.07.231-.07h.187l-.04 1.558c-.022.857-.059 1.94-.082 2.405l-.043.848-4.513 2.308c-2.482 1.27-5.886 3.01-7.564 3.866l-3.05 1.557z"/>
    <path style="fill:#1a1a1a;stroke:url(#d);stroke-width:.0544261;stroke-opacity:1" d="M4.8 11.775.118 10.053l-.014-2.69L.09 4.671l.442.677C1.3 6.525 1.937 7.28 2.616 7.828c.764.614 1.305.868 2.138 1.002 1.275.206 2.727-.43 4.217-1.843l.536-.51v3.517c0 1.933-.006 3.513-.013 3.51l-4.695-1.729z"/>
    <path style="fill:#1a1a1a;stroke:url(#e);stroke-width:.264583;stroke-dasharray:none;stroke-opacity:1" d="M4.636 8.752a3.823 3.823 0 0 1-.652-.193c-.742-.323-1.752-1.17-2.531-2.12C.986 5.87.078 4.563.135 4.544c.021-.008 1.177-.345 2.57-.75a3964.586 3964.586 0 0 0 5.197-1.517c.658-.193 2.52-.733 4.136-1.202C13.655.607 15.048.2 15.136.172a.497.497 0 0 1 .168-.038l.301.45c.587.878 1.39 1.528 2.202 1.782.448.14 1.42.164 1.95.047.175-.039.326-.062.336-.051.01.01-.867.353-1.95.763-1.083.41-3.462 1.31-5.288 2.003l-3.32 1.258-.626.57C7.31 8.415 5.915 9.002 4.636 8.753Z"/>
    <path style="fill:#1a1a1a;stroke:#000;stroke-width:.0544261;stroke-dasharray:none;stroke-opacity:1" d="M9.752 12.399c-.06-1.174-.012-5.784.06-5.856.032-.032 1.6-.642 3.483-1.356 1.883-.714 4.269-1.621 5.301-2.017 1.57-.602 4.377-1.663 5.688-2.15.18-.067.394-.154.476-.193.083-.039.166-.055.186-.035.041.04-.085 4.21-.137 4.517l-.035.207-5.96 3.047-7.492 3.83-1.532.783z"/>
    <path style="fill:#1a1a1a;stroke:#000;stroke-width:.264583;stroke-dasharray:none;stroke-opacity:1" d="M9.815 12.627c-.043-.56-.035-4.393.011-5.345l.035-.704.517-.21C10.89 6.161 20.497 2.5 23.386 1.41c.823-.31 1.505-.542 1.516-.515.026.066-.095 3.842-.136 4.26l-.033.327-7.399 3.782c-4.07 2.08-7.418 3.79-7.441 3.798-.024.009-.059-.187-.078-.435z"/>
    <path style="fill:#1a1a1a;stroke:#000;stroke-width:.0544261;stroke-dasharray:none;stroke-opacity:1" d="M4.731 11.695.146 10V7.472c0-1.391.02-2.506.044-2.477.025.028.311.427.638.886.967 1.362 1.831 2.188 2.8 2.675.563.283.974.382 1.588.381.642-.001 1.08-.104 1.709-.402.648-.307 1.213-.692 1.939-1.322l.589-.512v3.35c0 2.647-.014 3.349-.068 3.344-.038-.003-2.132-.768-4.654-1.7zM9.754 13.033c-.061-.244-.094-4.083-.045-5.336.036-.93.061-1.17.126-1.21.154-.095 13.474-5.173 14.522-5.535.469-.162.572-.182.615-.118.03.045.039.503.02 1.137-.036 1.194-.137 3.558-.153 3.57-.006.004-2.9 1.483-6.433 3.286a4540.664 4540.664 0 0 0-7.467 3.817c-.574.297-1.067.54-1.095.54-.029 0-.069-.068-.09-.15zm9.767-5.005 5.088-2.6.035-.246c.049-.344.172-4.085.136-4.121-.017-.017-.22.037-.454.12-.76.27-11.907 4.508-13.545 5.15l-.821.322-.036.988c-.045 1.257-.046 4.42 0 4.901l.034.367 2.238-1.14 7.325-3.741z"/>
</svg>
