<?xml version="1.0" encoding="UTF-8"?>
<svg version="1.1" xmlns="http://www.w3.org/2000/svg" width="225" height="224">
<path d="M0 0 C74.25 0 148.5 0 225 0 C225 73.92 225 147.84 225 224 C150.75 224 76.5 224 0 224 C0 150.08 0 76.16 0 0 Z " fill="#878787" transform="translate(0,0)"/>
<path d="M0 0 C74.25 0 148.5 0 225 0 C225 73.92 225 147.84 225 224 C150.75 224 76.5 224 0 224 C0 150.08 0 76.16 0 0 Z M175.12109375 9.375 C174.54488281 9.74625 173.96867188 10.1175 173.375 10.5 C172.23805079 11.19966105 171.0999908 11.89751967 169.9609375 12.59375 C169.34234863 12.97660156 168.72375977 13.35945312 168.08642578 13.75390625 C165.7221896 15.16591906 163.31493091 16.47507168 160.890625 17.78125 C154.91026748 21.01630748 149.05709419 24.45545921 143.20632935 27.91711426 C133.22572755 33.81875692 123.19954032 39.61982113 113.0625 45.25 C103.23847505 50.70701139 93.54494089 56.35715869 83.88671875 62.1015625 C76.44583385 66.52571765 68.92825574 70.81189858 61.3671875 75.02734375 C48.94531123 81.9606686 36.66021742 89.13634987 24.49902344 96.51806641 C18.41119795 100.2103866 12.26940709 103.5803234 6 107 C6 136.04 6 165.08 6 195 C13.59 199.29 21.18 203.58 29 208 C32.3 209.98 35.6 211.96 39 214 C41.8444311 215.91875626 41.8444311 215.91875626 45 216 C48.70826579 214.58112867 51.99412797 212.56521529 55.375 210.5 C56.376521 209.91065674 57.37804199 209.32131348 58.40991211 208.71411133 C60.53292277 207.463078 62.65090345 206.20347539 64.76416016 204.93603516 C68.98056013 202.41332112 73.22875496 199.94720103 77.4777832 197.47998047 C80.52787153 195.70762206 83.57310282 193.92717761 86.6171875 192.14453125 C93.05073987 188.38106979 99.51990146 184.68267895 106 181 C117.0338483 174.7239104 128.04224473 168.40818839 139 162 C151.14071814 154.90000487 163.3466193 147.91776827 175.57421875 140.96875 C184.2171483 136.04780579 192.80714374 131.03870782 201.38793945 126.01025391 C207.21890475 122.59884974 213.07643486 119.24816712 219 116 C219.53781472 91.84963698 219.62364369 68.72185879 214.59326172 45.00976562 C214.04335445 42.21994802 213.64232707 39.46420178 213.31640625 36.640625 C212.41629128 27.87618483 212.41629128 27.87618483 207.375 21 C204.937952 19.46828247 204.937952 19.46828247 202 18 C200.60026794 17.22498974 199.20194322 16.44743472 197.8046875 15.66796875 C194.18191283 13.67985119 190.54582168 11.73003365 186.83544922 9.90966797 C185.33023045 9.16366569 183.85851677 8.3504172 182.3984375 7.51953125 C179.32008711 6.85272245 177.75917815 7.78854378 175.12109375 9.375 Z " fill="#FDFDFD" transform="translate(0,0)"/>
<path d="M0 0 C4.71533226 0.41605873 7.91171335 2.51068858 11 6 C12.06640625 9.15234375 12.06640625 9.15234375 12.5625 12.9375 C12.77595974 14.48214441 12.99233554 16.02638743 13.2109375 17.5703125 C13.32791992 18.43301758 13.44490234 19.29572266 13.56542969 20.18457031 C14.03575033 23.23161393 14.65038206 26.22604424 15.2890625 29.2421875 C19.86000828 51.79485042 19.51049785 74.07629047 19 97 C18.01229614 97.53113403 18.01229614 97.53113403 17.00463867 98.07299805 C10.02405884 101.8504851 3.15356793 105.78889898 -3.6875 109.8125 C-10.53366084 113.82355718 -17.38445894 117.81931394 -24.3125 121.6875 C-36.09656069 128.26983561 -47.75224957 135.07508014 -59.375 141.9375 C-70.05714243 148.24140672 -80.84301541 154.36421233 -91.62646484 160.49267578 C-100.50031871 165.53611307 -109.3590334 170.59812028 -118.13500977 175.81054688 C-121.78989003 177.98074398 -125.45317381 180.13657598 -129.11621094 182.29296875 C-131.11864777 183.47829201 -133.11638184 184.67158167 -135.11035156 185.87109375 C-138.22945094 187.74542812 -141.36304476 189.5932461 -144.5 191.4375 C-145.46147949 192.02394287 -146.42295898 192.61038574 -147.41357422 193.21459961 C-154.117761 197.11095313 -154.117761 197.11095313 -158.19921875 196.59765625 C-159.58560547 195.80681641 -159.58560547 195.80681641 -161 195 C-162.15113281 194.401875 -163.30226563 193.80375 -164.48828125 193.1875 C-165.76608577 192.46371783 -167.04078329 191.73442606 -168.3125 191 C-168.90611328 190.66355469 -169.49972656 190.32710937 -170.11132812 189.98046875 C-171.45517448 189.21448986 -172.7849387 188.42347204 -174.10250854 187.61312866 C-176.44347516 186.30983566 -178.68339229 185.27479738 -181.14370728 184.24282837 C-192.56764452 179.07597421 -192.56764452 179.07597421 -194.95599174 173.94701385 C-196.40499288 167.96807188 -195.9513682 161.86697496 -195.66015625 155.7734375 C-195.62840527 153.81485478 -195.60422699 151.85613601 -195.58726501 149.89736938 C-195.52267385 144.76768085 -195.35604968 139.64631829 -195.16729736 134.51989746 C-194.99264617 129.27873416 -194.91559684 124.03620971 -194.83007812 118.79296875 C-194.64833643 108.52500791 -194.35865271 98.26319881 -194 88 C-191.38029207 86.46935061 -188.75498357 84.95030252 -186.125 83.4375 C-185.37863281 82.99986328 -184.63226563 82.56222656 -183.86328125 82.11132812 C-183.14785156 81.70205078 -182.43242187 81.29277344 -181.6953125 80.87109375 C-181.03547363 80.48880615 -180.37563477 80.10651855 -179.69580078 79.71264648 C-179.13618652 79.47747314 -178.57657227 79.2422998 -178 79 C-177.34 79.33 -176.68 79.66 -176 80 C-178.1217363 81.33878572 -180.24705188 82.67115476 -182.375 84 C-182.97828125 84.3815625 -183.5815625 84.763125 -184.203125 85.15625 C-188.7734375 88 -188.7734375 88 -191 88 C-191 88.66 -191 89.32 -191 90 C-190.2776416 90.27473145 -189.5552832 90.54946289 -188.81103516 90.83251953 C-184.11780129 92.78171567 -179.78833235 95.36769811 -175.375 97.875 C-174.42109375 98.40480469 -173.4671875 98.93460937 -172.484375 99.48046875 C-171.56914062 99.99996094 -170.65390625 100.51945312 -169.7109375 101.0546875 C-168.87868652 101.52374512 -168.04643555 101.99280273 -167.18896484 102.47607422 C-163.54120045 105.01559522 -162.24363008 106.96643165 -161.21630859 111.32470703 C-161.02891113 112.62263184 -160.84151367 113.92055664 -160.6484375 115.2578125 C-160.49189194 116.31245193 -160.49189194 116.31245193 -160.33218384 117.38839722 C-160.00211468 119.63248863 -159.6886143 121.87855662 -159.375 124.125 C-159.15727642 125.6121298 -158.93853604 127.09911111 -158.71875 128.5859375 C-157.62895908 136.04164913 -156.66893208 143.49309551 -156 151 C-142.66426824 144.69148019 -130.0460383 137.07091567 -117.4375 129.4375 C-111.36164602 125.75925574 -105.18272619 122.29356359 -98.96362305 118.86425781 C-87.51907562 112.54317671 -76.243807 105.93143399 -65.00170898 99.25830078 C-55.4922303 93.61386706 -45.92268194 88.09594772 -36.28125 82.67993164 C-29.69306537 78.97407779 -23.16385549 75.18035511 -16.66259766 71.32446289 C-11.99641641 68.56416253 -7.27223846 65.93727196 -2.49609375 63.37109375 C1.74547148 61.04121989 5.8679602 58.5173007 10 56 C10.92039063 55.61199219 11.84078125 55.22398438 12.7890625 54.82421875 C15.38948291 53.10416468 15.38948291 53.10416468 15.4296875 49.5390625 C15.07971065 44.10076967 14.08658863 38.73236203 13.125 33.375 C10.94831949 21.18966634 10.94831949 21.18966634 10.60546875 16.53125 C10.27251476 10.06695623 10.27251476 10.06695623 6.87890625 4.86328125 C4.64110556 3.36559561 2.41891724 2.16964105 0 1 C0 0.67 0 0.34 0 0 Z " fill="#777777" transform="translate(200,19)"/>
<path d="M0 0 C1.23943359 0.77537109 1.23943359 0.77537109 2.50390625 1.56640625 C3.90287156 2.29429078 5.30562439 3.0149166 6.7109375 3.73046875 C8.24747261 4.54819559 9.78259829 5.36857549 11.31640625 6.19140625 C12.49879883 6.82175781 12.49879883 6.82175781 13.70507812 7.46484375 C15.63925951 8.49640715 17.57214608 9.53031797 19.50390625 10.56640625 C19.17390625 11.22640625 18.84390625 11.88640625 18.50390625 12.56640625 C21.14390625 14.21640625 23.78390625 15.86640625 26.50390625 17.56640625 C25.50390625 21.56640625 25.50390625 21.56640625 23.61328125 23.015625 C22.8346875 23.42425781 22.05609375 23.83289063 21.25390625 24.25390625 C20.485625 24.67027344 19.71734375 25.08664063 18.92578125 25.515625 C16.44889317 26.59027483 14.16261277 27.13743055 11.50390625 27.56640625 C11.50390625 28.22640625 11.50390625 28.88640625 11.50390625 29.56640625 C10.84390625 29.56640625 10.18390625 29.56640625 9.50390625 29.56640625 C9.50390625 30.55640625 9.50390625 31.54640625 9.50390625 32.56640625 C7.85390625 32.56640625 6.20390625 32.56640625 4.50390625 32.56640625 C4.48328125 33.16453125 4.46265625 33.76265625 4.44140625 34.37890625 C3.50390625 36.56640625 3.50390625 36.56640625 0.56640625 37.94140625 C-0.05878906 38.17601562 -0.68398437 38.410625 -1.328125 38.65234375 C-6.54484516 40.85182576 -11.29499972 44.18656634 -16.08203125 47.1875 C-19.10825326 48.91607018 -22.13736937 49.66674793 -25.49609375 50.56640625 C-27.17241792 51.20840274 -28.84359888 51.86534782 -30.49609375 52.56640625 C-30.49609375 53.22640625 -30.49609375 53.88640625 -30.49609375 54.56640625 C-31.06199219 54.67597656 -31.62789062 54.78554688 -32.2109375 54.8984375 C-32.94441406 55.05699219 -33.67789063 55.21554688 -34.43359375 55.37890625 C-35.16449219 55.52972656 -35.89539063 55.68054687 -36.6484375 55.8359375 C-37.25816406 56.07699219 -37.86789063 56.31804688 -38.49609375 56.56640625 C-38.82609375 57.55640625 -39.15609375 58.54640625 -39.49609375 59.56640625 C-42.4804529 62.4143834 -45.29950656 64.43910974 -49.43359375 64.87890625 C-50.11421875 64.77578125 -50.79484375 64.67265625 -51.49609375 64.56640625 C-51.49609375 65.55640625 -51.49609375 66.54640625 -51.49609375 67.56640625 C-58.24609375 70.56640625 -58.24609375 70.56640625 -60.49609375 70.56640625 C-60.49609375 71.22640625 -60.49609375 71.88640625 -60.49609375 72.56640625 C-61.15609375 72.56640625 -61.81609375 72.56640625 -62.49609375 72.56640625 C-62.49609375 73.22640625 -62.49609375 73.88640625 -62.49609375 74.56640625 C-64.16671875 74.96859375 -64.16671875 74.96859375 -65.87109375 75.37890625 C-69.71450326 76.22449644 -69.71450326 76.22449644 -71.49609375 79.56640625 C-72.98109375 79.07140625 -72.98109375 79.07140625 -74.49609375 78.56640625 C-74.49609375 79.22640625 -74.49609375 79.88640625 -74.49609375 80.56640625 C-75.87109375 81.02473958 -77.24609375 81.48307292 -78.62109375 81.94140625 C-79.43964844 82.21984375 -80.25820312 82.49828125 -81.1015625 82.78515625 C-83.02277687 83.41197986 -84.97516069 83.94289602 -86.93359375 84.44140625 C-87.77921875 84.81265625 -88.62484375 85.18390625 -89.49609375 85.56640625 C-89.89828125 86.77296875 -89.89828125 86.77296875 -90.30859375 88.00390625 C-91.49609375 90.56640625 -91.49609375 90.56640625 -93.328125 91.41796875 C-94.89198176 91.90284427 -96.46285164 92.36552317 -98.0390625 92.80859375 C-100.51165048 93.57120435 -102.64386078 94.55671497 -104.93359375 95.75390625 C-108.49609375 97.56640625 -108.49609375 97.56640625 -110.49609375 97.56640625 C-110.49609375 98.22640625 -110.49609375 98.88640625 -110.49609375 99.56640625 C-113.46609375 100.55640625 -113.46609375 100.55640625 -116.49609375 101.56640625 C-116.49609375 102.22640625 -116.49609375 102.88640625 -116.49609375 103.56640625 C-117.19476563 103.90414062 -117.8934375 104.241875 -118.61328125 104.58984375 C-119.52335937 105.03585938 -120.4334375 105.481875 -121.37109375 105.94140625 C-122.27601562 106.38226563 -123.1809375 106.823125 -124.11328125 107.27734375 C-126.59143847 108.47143324 -126.59143847 108.47143324 -128.49609375 110.56640625 C-130.48430688 110.96404888 -132.48553714 111.30415974 -134.49609375 111.56640625 C-134.49609375 112.22640625 -134.49609375 112.88640625 -134.49609375 113.56640625 C-135.90063018 114.46074782 -137.32031244 115.33133817 -138.74609375 116.19140625 C-139.535 116.67867188 -140.32390625 117.1659375 -141.13671875 117.66796875 C-143.49609375 118.56640625 -143.49609375 118.56640625 -145.26367188 117.83984375 C-146.00037109 117.41960937 -146.73707031 116.999375 -147.49609375 116.56640625 C-148.43356445 116.03708496 -149.37103516 115.50776367 -150.33691406 114.96240234 C-151.40522461 114.34445801 -152.47353516 113.72651367 -153.57421875 113.08984375 C-154.14565613 112.75973297 -154.71709351 112.42962219 -155.30584717 112.08950806 C-157.11989415 111.04122859 -158.93300519 109.99134235 -160.74609375 108.94140625 C-161.98040718 108.22775809 -163.21478153 107.51421527 -164.44921875 106.80078125 C-167.46555001 105.05720877 -170.48104434 103.31219463 -173.49609375 101.56640625 C-173.49609375 100.90640625 -173.49609375 100.24640625 -173.49609375 99.56640625 C-172.04976562 98.76976563 -172.04976562 98.76976563 -170.57421875 97.95703125 C-169.29798134 97.24383975 -168.02195051 96.53027849 -166.74609375 95.81640625 C-166.111875 95.46835938 -165.47765625 95.1203125 -164.82421875 94.76171875 C-162.08971314 93.22355934 -159.80134021 91.87792061 -157.59375 89.625 C-154.39664655 86.48743292 -150.57404138 84.55784955 -146.68359375 82.37890625 C-144.96814779 81.40340198 -143.25331109 80.42682561 -141.5390625 79.44921875 C-140.68747559 78.96485352 -139.83588867 78.48048828 -138.95849609 77.98144531 C-135.43848257 75.95864159 -131.96601878 73.86108389 -128.49609375 71.75390625 C-123.59696402 68.79109006 -118.64183981 65.977618 -113.59765625 63.26953125 C-109.56807333 61.05681317 -105.59559167 58.75126056 -101.62109375 56.44140625 C-94.84175166 52.50293132 -88.053319 48.58152359 -81.24609375 44.69140625 C-80.3751709 44.19342529 -79.50424805 43.69544434 -78.60693359 43.18237305 C-74.05876522 40.58597118 -69.50254487 38.00497803 -64.93359375 35.4453125 C-54.79614427 29.76043444 -44.75403719 23.9568446 -34.80859375 17.94140625 C-26.98979598 13.23506341 -19.17055414 8.53070007 -11.24609375 4.00390625 C-10.43052002 3.52034668 -9.61494629 3.03678711 -8.7746582 2.53857422 C-3.24986256 -0.56453012 -3.24986256 -0.56453012 0 0 Z " fill="#989898" transform="translate(182.49609375,7.43359375)"/>
<path d="M0 0 C0.99 0.33 1.98 0.66 3 1 C2.02804688 1.57105469 1.05609375 2.14210938 0.0546875 2.73046875 C-1.33855037 3.54946436 -2.73177866 4.36847627 -4.125 5.1875 C-4.88345215 5.63311279 -5.6419043 6.07872559 -6.42333984 6.5378418 C-10.69447781 9.04908481 -14.9605203 11.56848613 -19.21875 14.1015625 C-29.44534899 20.17949467 -39.72554527 26.14257495 -50.09423828 31.97485352 C-64.45241604 40.05633167 -78.79776119 48.18619908 -92.875 56.75 C-99.16305883 60.57464969 -105.5997508 64.09906917 -112.06738281 67.60961914 C-119.8374863 71.85197679 -127.44256742 76.35646388 -135.01782227 80.93652344 C-135.90139404 81.46665039 -136.78496582 81.99677734 -137.6953125 82.54296875 C-138.47922363 83.01758545 -139.26313477 83.49220215 -140.07080078 83.98120117 C-142 85 -142 85 -144 85 C-143.505 105.295 -143.505 105.295 -143 126 C-135.08 121.05 -135.08 121.05 -127 116 C-119.625 112.25 -119.625 112.25 -116.2109375 110.609375 C-112.2727995 108.63551508 -108.58329929 106.36532007 -104.890625 103.96875 C-104.26671875 103.6490625 -103.6428125 103.329375 -103 103 C-102.34 103.33 -101.68 103.66 -101 104 C-106.63875191 107.43191755 -112.29849525 110.82717151 -117.97412109 114.19775391 C-120.02244343 115.41775677 -122.06694654 116.64419097 -124.10791016 117.87646484 C-127.18527152 119.72979385 -130.2779394 121.55482612 -133.375 123.375 C-134.34252197 123.96434326 -135.31004395 124.55368652 -136.30688477 125.16088867 C-143.11307693 129.1101902 -143.11307693 129.1101902 -147.20703125 128.6015625 C-148.12871094 128.07304687 -149.05039063 127.54453125 -150 127 C-151.15113281 126.401875 -152.30226563 125.80375 -153.48828125 125.1875 C-154.76608577 124.46371783 -156.04078329 123.73442606 -157.3125 123 C-157.90611328 122.66355469 -158.49972656 122.32710938 -159.11132812 121.98046875 C-160.45517448 121.21448986 -161.7849387 120.42347204 -163.10250854 119.61312866 C-165.44347516 118.30983566 -167.68339229 117.27479738 -170.14370728 116.24282837 C-181.56764452 111.07597421 -181.56764452 111.07597421 -183.95599174 105.94701385 C-185.40499288 99.96807188 -184.9513682 93.86697496 -184.66015625 87.7734375 C-184.62840527 85.81485478 -184.60422699 83.85613601 -184.58726501 81.89736938 C-184.52267385 76.76768085 -184.35604968 71.64631829 -184.16729736 66.51989746 C-183.99264617 61.27873416 -183.91559684 56.03620971 -183.83007812 50.79296875 C-183.64833643 40.52500791 -183.35865271 30.26319881 -183 20 C-180.38029207 18.46935061 -177.75498357 16.95030252 -175.125 15.4375 C-174.37863281 14.99986328 -173.63226563 14.56222656 -172.86328125 14.11132812 C-172.14785156 13.70205078 -171.43242187 13.29277344 -170.6953125 12.87109375 C-170.03547363 12.48880615 -169.37563477 12.10651855 -168.69580078 11.71264648 C-168.13618652 11.47747314 -167.57657227 11.2422998 -167 11 C-166.34 11.33 -165.68 11.66 -165 12 C-167.1217363 13.33878572 -169.24705188 14.67115476 -171.375 16 C-171.97828125 16.3815625 -172.5815625 16.763125 -173.203125 17.15625 C-177.7734375 20 -177.7734375 20 -180 20 C-180 20.66 -180 21.32 -180 22 C-178.9164624 22.41209717 -178.9164624 22.41209717 -177.81103516 22.83251953 C-173.11780129 24.78171567 -168.78833235 27.36769811 -164.375 29.875 C-162.94414062 30.66970703 -162.94414062 30.66970703 -161.484375 31.48046875 C-160.56914062 31.99996094 -159.65390625 32.51945312 -158.7109375 33.0546875 C-157.87868652 33.52374512 -157.04643555 33.99280273 -156.18896484 34.47607422 C-152.54120045 37.01559522 -151.24363008 38.96643165 -150.21630859 43.32470703 C-150.02891113 44.62263184 -149.84151367 45.92055664 -149.6484375 47.2578125 C-149.54407379 47.96090546 -149.43971008 48.66399841 -149.33218384 49.38839722 C-149.00211468 51.63248863 -148.6886143 53.87855662 -148.375 56.125 C-148.15727642 57.6121298 -147.93853604 59.09911111 -147.71875 60.5859375 C-146.62895908 68.04164913 -145.66893208 75.49309551 -145 83 C-131.66426824 76.69148019 -119.0460383 69.07091567 -106.4375 61.4375 C-100.36164602 57.75925574 -94.18272619 54.29356359 -87.96362305 50.86425781 C-76.51907562 44.54317671 -65.243807 37.93143399 -54.00170898 31.25830078 C-44.49892551 25.61784107 -34.94145506 20.09361886 -25.29882812 14.6953125 C-20.78755373 12.16452176 -16.3044378 9.60418841 -11.87890625 6.92578125 C-10.70001831 6.2145813 -10.70001831 6.2145813 -9.49731445 5.48901367 C-8.03854712 4.60361084 -6.58489527 3.70970347 -5.13745117 2.8059082 C-3.46904014 1.79407998 -1.73841772 0.88616903 0 0 Z " fill="#3C3C3C" transform="translate(189,87)"/>
<path d="M0 0 C0.99 0.33 1.98 0.66 3 1 C2.765625 2.83203125 2.765625 2.83203125 2 5 C0.109375 6.44921875 0.109375 6.44921875 -2.25 7.6875 C-3.01828125 8.10386719 -3.7865625 8.52023438 -4.578125 8.94921875 C-7.05501308 10.02386858 -9.34129348 10.5710243 -12 11 C-12 11.66 -12 12.32 -12 13 C-12.66 13 -13.32 13 -14 13 C-14 13.99 -14 14.98 -14 16 C-15.65 16 -17.3 16 -19 16 C-19.020625 16.598125 -19.04125 17.19625 -19.0625 17.8125 C-20 20 -20 20 -22.9375 21.375 C-23.56269531 21.60960938 -24.18789062 21.84421875 -24.83203125 22.0859375 C-30.04875141 24.28541951 -34.79890597 27.62016009 -39.5859375 30.62109375 C-42.61215951 32.34966393 -45.64127562 33.10034168 -49 34 C-50.67632417 34.64199649 -52.34750513 35.29894157 -54 36 C-54 36.66 -54 37.32 -54 38 C-54.56589844 38.10957031 -55.13179688 38.21914063 -55.71484375 38.33203125 C-56.44832031 38.49058594 -57.18179688 38.64914063 -57.9375 38.8125 C-58.66839844 38.96332031 -59.39929688 39.11414062 -60.15234375 39.26953125 C-60.76207031 39.51058594 -61.37179688 39.75164063 -62 40 C-62.33 40.99 -62.66 41.98 -63 43 C-65.98435915 45.84797715 -68.80341281 47.87270349 -72.9375 48.3125 C-73.618125 48.209375 -74.29875 48.10625 -75 48 C-75 48.99 -75 49.98 -75 51 C-81.75 54 -81.75 54 -84 54 C-84 54.66 -84 55.32 -84 56 C-84.66 56 -85.32 56 -86 56 C-86 56.66 -86 57.32 -86 58 C-87.11375 58.268125 -88.2275 58.53625 -89.375 58.8125 C-93.21840951 59.65809019 -93.21840951 59.65809019 -95 63 C-96.485 62.505 -96.485 62.505 -98 62 C-98 62.66 -98 63.32 -98 64 C-99.375 64.45833333 -100.75 64.91666667 -102.125 65.375 C-102.94355469 65.6534375 -103.76210937 65.931875 -104.60546875 66.21875 C-106.52668312 66.84557361 -108.47906694 67.37648977 -110.4375 67.875 C-111.283125 68.24625 -112.12875 68.6175 -113 69 C-113.268125 69.804375 -113.53625 70.60875 -113.8125 71.4375 C-115 74 -115 74 -116.83203125 74.8515625 C-118.39588801 75.33643802 -119.96675789 75.79911692 -121.54296875 76.2421875 C-124.01555673 77.0047981 -126.14776703 77.99030872 -128.4375 79.1875 C-132 81 -132 81 -134 81 C-134 81.66 -134 82.32 -134 83 C-136.97 83.99 -136.97 83.99 -140 85 C-140 85.66 -140 86.32 -140 87 C-141.04800781 87.50660156 -141.04800781 87.50660156 -142.1171875 88.0234375 C-143.02726562 88.46945313 -143.93734375 88.91546875 -144.875 89.375 C-145.77992188 89.81585938 -146.68484375 90.25671875 -147.6171875 90.7109375 C-150.09534472 91.90502699 -150.09534472 91.90502699 -152 94 C-153.98821313 94.39764263 -155.98944339 94.73775349 -158 95 C-158 95.66 -158 96.32 -158 97 C-159.43011973 97.86646667 -160.86940619 98.71781829 -162.3125 99.5625 C-163.11300781 100.03816406 -163.91351563 100.51382813 -164.73828125 101.00390625 C-167 102 -167 102 -170 101 C-168.71034824 99.62437146 -167.37310707 98.29233607 -166 97 C-165.34 97 -164.68 97 -164 97 C-164 96.34 -164 95.68 -164 95 C-163.34773438 94.68546875 -162.69546875 94.3709375 -162.0234375 94.046875 C-158.08648074 92.11904366 -154.3613908 90.25019363 -150.75 87.75 C-147.75528629 85.84427309 -145.50501512 85.33381096 -142 85 C-142 84.34 -142 83.68 -142 83 C-141.43152344 82.68546875 -140.86304688 82.3709375 -140.27734375 82.046875 C-138.66689752 81.15427375 -137.05758562 80.25962385 -135.44921875 79.36328125 C-133.97552765 78.54299705 -132.49963487 77.72662497 -131.01953125 76.91796875 C-128.39515808 75.46384587 -126.02769518 74.02384863 -123.75 72.0625 C-121.04170468 70.03127851 -118.59033397 68.85098825 -115.5 67.5 C-111.43200265 65.72025116 -108.42933818 63.829204 -105 61 C-102.26982735 59.42682125 -99.50334983 57.93927372 -96.71875 56.46484375 C-94.8907846 55.4799486 -93.09755155 54.42800694 -91.34375 53.31640625 C-89 52 -89 52 -86 52 C-86 51.34 -86 50.68 -86 50 C-83.09399739 48.74335022 -81.20395416 48 -78 48 C-77.67 47.01 -77.34 46.02 -77 45 C-72.66666667 42 -72.66666667 42 -70 42 C-69.67 41.01 -69.34 40.02 -69 39 C-67.35544725 38.28050817 -65.68076231 37.63028587 -64 37 C-61.67308768 35.70999247 -59.37692183 34.37613473 -57.0859375 33.0234375 C-55 32 -55 32 -52 32 C-52 31.34 -52 30.68 -52 30 C-50.97519531 29.45730469 -49.95039063 28.91460937 -48.89453125 28.35546875 C-47.53381697 27.63288255 -46.17314196 26.91022238 -44.8125 26.1875 C-44.13896484 25.83107422 -43.46542969 25.47464844 -42.77148438 25.10742188 C-39.84086237 23.54918871 -36.96517215 21.97857113 -34.13671875 20.23828125 C-32 19 -32 19 -30 19 C-30 18.34 -30 17.68 -30 17 C-28.2984375 16.319375 -28.2984375 16.319375 -26.5625 15.625 C-22.95278308 14.42904194 -22.95278308 14.42904194 -22 12 C-20.6696875 11.566875 -20.6696875 11.566875 -19.3125 11.125 C-15.67291899 9.88891588 -13.1656868 8.17253016 -10 6 C-7.63473922 4.65180135 -5.2499383 3.34628153 -2.85546875 2.05078125 C-1.0462025 1.13514985 -1.0462025 1.13514985 0 0 Z " fill="#AFAFAF" transform="translate(206,24)"/>
<path d="M0 0 C0 0.66 0 1.32 0 2 C-2.90548882 4.04169485 -4.40142046 5 -8 5 C-8 5.66 -8 6.32 -8 7 C-8.54527344 7.29132813 -9.09054688 7.58265625 -9.65234375 7.8828125 C-13.75985111 10.11561137 -17.67818463 12.42883395 -21.5 15.125 C-24.59631558 17.26358001 -27.31962133 18.53791676 -30.9375 19.5625 C-33.16420071 20.15523312 -33.16420071 20.15523312 -35 21 C-35.33 21.825 -35.66 22.65 -36 23.5 C-37 26 -37 26 -38.8203125 26.84765625 C-40.38804724 27.33391974 -41.96279635 27.79800334 -43.54296875 28.2421875 C-46.01555673 29.0047981 -48.14776703 29.99030872 -50.4375 31.1875 C-54 33 -54 33 -56 33 C-56 33.66 -56 34.32 -56 35 C-57.98 35.66 -59.96 36.32 -62 37 C-62 37.66 -62 38.32 -62 39 C-62.69867188 39.33773437 -63.39734375 39.67546875 -64.1171875 40.0234375 C-65.02726562 40.46945313 -65.93734375 40.91546875 -66.875 41.375 C-67.77992187 41.81585938 -68.68484375 42.25671875 -69.6171875 42.7109375 C-72.09534472 43.90502699 -72.09534472 43.90502699 -74 46 C-75.98821313 46.39764263 -77.98944339 46.73775349 -80 47 C-80 47.66 -80 48.32 -80 49 C-81.43011973 49.86646667 -82.86940619 50.71781829 -84.3125 51.5625 C-85.11300781 52.03816406 -85.91351563 52.51382813 -86.73828125 53.00390625 C-89 54 -89 54 -92 53 C-90.71034824 51.62437146 -89.37310707 50.29233607 -88 49 C-87.34 49 -86.68 49 -86 49 C-86 48.34 -86 47.68 -86 47 C-85.34773438 46.68546875 -84.69546875 46.3709375 -84.0234375 46.046875 C-80.08648074 44.11904366 -76.3613908 42.25019363 -72.75 39.75 C-69.75528629 37.84427309 -67.50501512 37.33381096 -64 37 C-64 36.34 -64 35.68 -64 35 C-63.43152344 34.68546875 -62.86304687 34.3709375 -62.27734375 34.046875 C-60.66689752 33.15427375 -59.05758562 32.25962385 -57.44921875 31.36328125 C-55.97552765 30.54299705 -54.49963487 29.72662497 -53.01953125 28.91796875 C-50.39515808 27.46384587 -48.02769518 26.02384863 -45.75 24.0625 C-43.04170468 22.03127851 -40.59033397 20.85098825 -37.5 19.5 C-33.43200265 17.72025116 -30.42933818 15.829204 -27 13 C-24.26982735 11.42682125 -21.50334983 9.93927372 -18.71875 8.46484375 C-16.8907846 7.4799486 -15.09755155 6.42800694 -13.34375 5.31640625 C-11 4 -11 4 -8 4 C-8 3.34 -8 2.68 -8 2 C-5.09399739 0.74335022 -3.20395416 0 0 0 Z " fill="#C7C7C7" transform="translate(128,72)"/>
<path d="M0 0 C0.99 0.33 1.98 0.66 3 1 C2.02804688 1.57105469 1.05609375 2.14210938 0.0546875 2.73046875 C-1.33855037 3.54946436 -2.73177866 4.36847627 -4.125 5.1875 C-4.88345215 5.63311279 -5.6419043 6.07872559 -6.42333984 6.5378418 C-10.69447781 9.04908481 -14.9605203 11.56848613 -19.21875 14.1015625 C-29.44534899 20.17949467 -39.72554527 26.14257495 -50.09423828 31.97485352 C-64.45243085 40.05634001 -78.79759778 48.18644349 -92.875 56.75 C-99.23446915 60.61665847 -105.73850484 64.19649008 -112.27832031 67.74804688 C-116.70377232 70.15883863 -121.08924651 72.61849956 -125.4296875 75.1796875 C-126.73728027 75.95046631 -126.73728027 75.95046631 -128.07128906 76.73681641 C-129.74665099 77.72954043 -131.41804128 78.72900449 -133.08496094 79.73583984 C-133.83293945 80.17879395 -134.58091797 80.62174805 -135.3515625 81.078125 C-136.00979004 81.47418945 -136.66801758 81.87025391 -137.34619141 82.27832031 C-137.89194824 82.51647461 -138.43770508 82.75462891 -139 83 C-139.66 82.67 -140.32 82.34 -141 82 C-133.86461592 77.54334815 -126.69025155 73.20888285 -119.36572266 69.06787109 C-115.11572165 66.65778822 -110.92647835 64.15996865 -106.75 61.625 C-101.31526055 58.33480619 -95.81364917 55.19187724 -90.25 52.125 C-78.03727559 45.39103946 -65.9939033 38.3766794 -54.00170898 31.25830078 C-44.49892551 25.61784107 -34.94145506 20.09361886 -25.29882812 14.6953125 C-20.78755373 12.16452176 -16.3044378 9.60418841 -11.87890625 6.92578125 C-10.70001831 6.2145813 -10.70001831 6.2145813 -9.49731445 5.48901367 C-8.03854712 4.60361084 -6.58489527 3.70970347 -5.13745117 2.8059082 C-3.46904014 1.79407998 -1.73841772 0.88616903 0 0 Z " fill="#202020" transform="translate(189,87)"/>
<path d="M0 0 C4.71533226 0.41605873 7.91171335 2.51068858 11 6 C12.06640625 9.15234375 12.06640625 9.15234375 12.5625 12.9375 C12.77595974 14.48214441 12.99233554 16.02638743 13.2109375 17.5703125 C13.32791992 18.43301758 13.44490234 19.29572266 13.56542969 20.18457031 C14.03575033 23.23161393 14.65038206 26.22604424 15.2890625 29.2421875 C19.86000828 51.79485042 19.51049785 74.07629047 19 97 C18.25306885 97.40484619 17.5061377 97.80969238 16.73657227 98.22680664 C15.26015259 99.0291272 15.26015259 99.0291272 13.75390625 99.84765625 C12.29319702 100.64055054 12.29319702 100.64055054 10.80297852 101.44946289 C8.48165883 102.73355847 6.20822413 104.06741576 3.9375 105.4375 C2.968125 105.953125 1.99875 106.46875 1 107 C0.34 106.67 -0.32 106.34 -1 106 C1.62042843 104.32605999 4.24705905 102.6621165 6.875 101 C7.62136719 100.52304688 8.36773437 100.04609375 9.13671875 99.5546875 C9.85214844 99.10351562 10.56757813 98.65234375 11.3046875 98.1875 C11.96452637 97.76855469 12.62436523 97.34960938 13.30419922 96.91796875 C15 96 15 96 17 96 C17 82.47 17 68.94 17 55 C12.05 57.97 7.1 60.94 2 64 C-2.8125 66.625 -2.8125 66.625 -6 68 C-6.66 67.67 -7.32 67.34 -8 67 C-5.4802384 65.41493988 -2.95923438 63.83191619 -0.4375 62.25 C0.26697266 61.8065625 0.97144531 61.363125 1.69726562 60.90625 C6.07553302 58.16226675 10.49625591 55.53298617 15 53 C15.24146393 46.25510755 14.31502787 40.00508062 13.125 33.375 C10.94831949 21.18966634 10.94831949 21.18966634 10.60546875 16.53125 C10.27251476 10.06695623 10.27251476 10.06695623 6.87890625 4.86328125 C4.64110556 3.36559561 2.41891724 2.16964105 0 1 C0 0.67 0 0.34 0 0 Z " fill="#575757" transform="translate(200,19)"/>
<path d="M0 0 C0.99 0.33 1.98 0.66 3 1 C2.765625 2.83203125 2.765625 2.83203125 2 5 C0.109375 6.44921875 0.109375 6.44921875 -2.25 7.6875 C-3.01828125 8.10386719 -3.7865625 8.52023438 -4.578125 8.94921875 C-7.05501308 10.02386858 -9.34129348 10.5710243 -12 11 C-12 11.66 -12 12.32 -12 13 C-12.66 13 -13.32 13 -14 13 C-14 13.99 -14 14.98 -14 16 C-15.65 16 -17.3 16 -19 16 C-19.020625 16.598125 -19.04125 17.19625 -19.0625 17.8125 C-20 20 -20 20 -22.9375 21.375 C-23.56269531 21.60960938 -24.18789062 21.84421875 -24.83203125 22.0859375 C-30.07588831 24.29686102 -34.88047104 27.63989111 -39.66015625 30.70703125 C-42 32 -42 32 -44.3125 31.6875 C-44.869375 31.460625 -45.42625 31.23375 -46 31 C-45.34 31 -44.68 31 -44 31 C-44 30.34 -44 29.68 -44 29 C-42.02 28.67 -40.04 28.34 -38 28 C-38 27.34 -38 26.68 -38 26 C-35.36107824 24.21694476 -33.02821137 23.00940379 -30 22 C-30 21.34 -30 20.68 -30 20 C-30.66 19.67 -31.32 19.34 -32 19 C-31.34 19 -30.68 19 -30 19 C-30 18.34 -30 17.68 -30 17 C-28.865625 16.54625 -27.73125 16.0925 -26.5625 15.625 C-22.95278308 14.42904194 -22.95278308 14.42904194 -22 12 C-21.113125 11.71125 -20.22625 11.4225 -19.3125 11.125 C-15.67291899 9.88891588 -13.1656868 8.17253016 -10 6 C-7.63473922 4.65180135 -5.2499383 3.34628153 -2.85546875 2.05078125 C-1.0462025 1.13514985 -1.0462025 1.13514985 0 0 Z " fill="#A9A9A9" transform="translate(206,24)"/>
<path d="M0 0 C2.475 0.495 2.475 0.495 5 1 C6.17942085 4.53826255 6.11289189 7.34148726 6.09765625 11.07421875 C6.0962413 11.7580513 6.09482635 12.44188385 6.09336853 13.1464386 C6.08777876 15.32683722 6.07522822 17.50713251 6.0625 19.6875 C6.05748367 21.16731622 6.052921 22.64713406 6.04882812 24.12695312 C6.03781271 27.75133557 6.02055512 31.3756577 6 35 C1.125 34.125 1.125 34.125 0 33 C-0.08843793 30.55169574 -0.11528752 28.13179401 -0.09765625 25.68359375 C-0.0962413 24.95253922 -0.09482635 24.22148468 -0.09336853 23.46827698 C-0.08775408 21.12464368 -0.07519922 18.78110461 -0.0625 16.4375 C-0.05748686 14.85221492 -0.05292363 13.26692834 -0.04882812 11.68164062 C-0.03777997 7.7877239 -0.02050572 3.89387795 0 0 Z " fill="#4D4D4D" transform="translate(34,176)"/>
<path d="M0 0 C0 0.66 0 1.32 0 2 C-2.90548882 4.04169485 -4.40142046 5 -8 5 C-8 5.66 -8 6.32 -8 7 C-8.54527344 7.29132813 -9.09054688 7.58265625 -9.65234375 7.8828125 C-13.75985111 10.11561137 -17.67818463 12.42883395 -21.5 15.125 C-24.59631558 17.26358001 -27.31962133 18.53791676 -30.9375 19.5625 C-33.15711533 20.14793634 -33.15711533 20.14793634 -35 21 C-36.20450304 23.55183404 -36.20450304 23.55183404 -37 26 C-40.125 26.8125 -40.125 26.8125 -43 27 C-42.01 26.01 -41.02 25.02 -40 24 C-41.32 23.67 -42.64 23.34 -44 23 C-37.56756757 19.21621622 -37.56756757 19.21621622 -34.375 18 C-31.90868408 17.09498691 -31.90868408 17.09498691 -29.875 15.25 C-26.3717169 12.50830018 -22.64272851 10.54256833 -18.71875 8.46484375 C-16.8907846 7.4799486 -15.09755155 6.42800694 -13.34375 5.31640625 C-11 4 -11 4 -8 4 C-8 3.34 -8 2.68 -8 2 C-5.09399739 0.74335022 -3.20395416 0 0 0 Z " fill="#BBBBBB" transform="translate(128,72)"/>
<path d="M0 0 C0 0.66 0 1.32 0 2 C-4.35294118 6 -4.35294118 6 -8 6 C-8 6.66 -8 7.32 -8 8 C-9.98 8.33 -11.96 8.66 -14 9 C-14 9.66 -14 10.32 -14 11 C-15.6796875 12.2890625 -15.6796875 12.2890625 -17.875 13.625 C-18.59429687 14.07101563 -19.31359375 14.51703125 -20.0546875 14.9765625 C-22 16 -22 16 -24 16 C-24 16.66 -24 17.32 -24 18 C-27.83887763 19.48320272 -30.06204091 20.22419163 -34 19 C-26.88610478 12.29612756 -26.88610478 12.29612756 -22 12 C-22 11.34 -22 10.68 -22 10 C-19.58367661 8.70768774 -17.16695604 7.41612809 -14.75 6.125 C-14.06808594 5.76019531 -13.38617188 5.39539062 -12.68359375 5.01953125 C-11.3652497 4.31556113 -10.04562973 3.6139741 -8.72460938 2.91503906 C-7.37867414 2.20091601 -6.0395139 1.47401952 -4.703125 0.7421875 C-3 0 -3 0 0 0 Z " fill="#B0B0B0" transform="translate(176,44)"/>
<path d="M0 0 C0.99 0.33 1.98 0.66 3 1 C-7.94312572 7.48269047 -18.94196398 13.85978507 -30 20.14453125 C-33.13961314 21.93063559 -36.2651049 23.73688008 -39.375 25.57421875 C-40.02637939 25.95626465 -40.67775879 26.33831055 -41.34887695 26.73193359 C-43.06258152 27.73908489 -44.77171254 28.7540071 -46.48046875 29.76953125 C-47.72763672 30.37861328 -47.72763672 30.37861328 -49 31 C-49.66 30.67 -50.32 30.34 -51 30 C-47.85569268 28.10162729 -44.7092732 26.20678196 -41.5625 24.3125 C-40.68400391 23.78205078 -39.80550781 23.25160156 -38.90039062 22.70507812 C-33.89481924 19.694347 -28.86321791 16.79097813 -23.69506836 14.06713867 C-21.83391243 13.10003991 -21.83391243 13.10003991 -21 11 C-19.02111039 10.27306096 -17.02045442 9.60183749 -15 9 C-14.67 7.02 -14.34 5.04 -14 3 C-11 3 -8 3 -5 3 C-4.175 2.484375 -3.35 1.96875 -2.5 1.4375 C-1.675 0.963125 -0.85 0.48875 0 0 Z " fill="#505050" transform="translate(139,159)"/>
<path d="M0 0 C0.66 0.33 1.32 0.66 2 1 C-9.78123419 8.46462814 -21.90666418 15.34182794 -34.00341797 22.27783203 C-36.58123205 23.75932955 -39.1537105 25.24929487 -41.72265625 26.74609375 C-42.3782251 27.12636719 -43.03379395 27.50664063 -43.70922852 27.8984375 C-45.3594651 28.85595719 -47.00794077 29.81651003 -48.65625 30.77734375 C-51 32 -51 32 -53 32 C-53 32.66 -53 33.32 -53 34 C-54.32 33.67 -55.64 33.34 -57 33 C-27.83672585 15.42562518 -27.83672585 15.42562518 -16.7734375 9.51953125 C-14.58666154 8.32142442 -12.43603767 7.09070512 -10.2890625 5.82421875 C-9.33132935 5.26275146 -9.33132935 5.26275146 -8.35424805 4.68994141 C-7.09657106 3.95016911 -5.8426627 3.2039442 -4.59301758 2.45068359 C-3.09592255 1.57318596 -1.55083906 0.77858451 0 0 Z " fill="#545454" transform="translate(86,61)"/>
<path d="M0 0 C0.66 0.33 1.32 0.66 2 1 C-6.27580341 6.02969086 -14.5918826 10.96251549 -23.05517578 15.67114258 C-26.40948725 17.53780743 -29.74508748 19.42717856 -33.05078125 21.37890625 C-33.6945874 21.756521 -34.33839355 22.13413574 -35.00170898 22.52319336 C-36.77255746 23.56474675 -38.53877189 24.61416734 -40.3046875 25.6640625 C-41.19414062 26.10492188 -42.08359375 26.54578125 -43 27 C-43.66 26.67 -44.32 26.34 -45 26 C-44.236875 25.4225 -43.47375 24.845 -42.6875 24.25 C-39.99108421 22.16642802 -39.99108421 22.16642802 -38.3125 19.75 C-37.6628125 18.88375 -37.6628125 18.88375 -37 18 C-36.34 18 -35.68 18 -35 18 C-35 18.66 -35 19.32 -35 20 C-33.88927124 19.35768433 -33.88927124 19.35768433 -32.75610352 18.70239258 C-29.96641285 17.0896469 -27.17632726 15.47758708 -24.38598633 13.8659668 C-23.18628732 13.17287519 -21.98673882 12.479523 -20.78735352 11.78588867 C-17.91835284 10.12677972 -15.04721399 8.47172956 -12.17236328 6.82275391 C-10.18077859 5.67844335 -8.19398267 4.52571425 -6.21435547 3.36083984 C-5.4101416 2.89500488 -4.60592773 2.42916992 -3.77734375 1.94921875 C-2.74275024 1.34146606 -2.74275024 1.34146606 -1.68725586 0.72143555 C-0.85206421 0.36432495 -0.85206421 0.36432495 0 0 Z " fill="#4A4A4A" transform="translate(197,126)"/>
<path d="M0 0 C3.05566994 1.49457296 6.00029186 3.10679296 8.94140625 4.81640625 C9.9984375 5.42484375 11.05546875 6.03328125 12.14453125 6.66015625 C14.69140625 8.31640625 14.69140625 8.31640625 15.69140625 10.31640625 C10.90530417 8.53573306 6.69543529 6.05665646 2.3125 3.4609375 C-0.71338971 2.13964736 -1.28664042 2.28851209 -4.30859375 3.31640625 C-5.88427293 4.08340262 -7.43653481 4.89949138 -8.96875 5.75 C-9.84466797 6.23404297 -10.72058594 6.71808594 -11.62304688 7.21679688 C-12.52990234 7.72404297 -13.43675781 8.23128906 -14.37109375 8.75390625 C-15.28181641 9.25728516 -16.19253906 9.76066406 -17.13085938 10.27929688 C-20.60157262 12.20519744 -24.00430793 14.11354904 -27.30859375 16.31640625 C-28.29859375 15.98640625 -29.28859375 15.65640625 -30.30859375 15.31640625 C-24.23158266 11.30742745 -18.17271015 7.58490454 -11.59375 4.45703125 C-9.45033166 3.38715406 -7.50402904 2.17994423 -5.49609375 0.87890625 C-2.30859375 -0.68359375 -2.30859375 -0.68359375 0 0 Z " fill="#575757" transform="translate(182.30859375,7.68359375)"/>
<path d="M0 0 C0 0.66 0 1.32 0 2 C-5.59153066 5.06165487 -11.19029957 8.10774168 -16.81640625 11.10546875 C-18.23856445 11.86827148 -18.23856445 11.86827148 -19.68945312 12.64648438 C-21.63700862 13.69109436 -23.58764094 14.72998442 -25.54101562 15.76367188 C-26.47751953 16.26833984 -27.41402344 16.77300781 -28.37890625 17.29296875 C-29.2201001 17.7418042 -30.06129395 18.19063965 -30.92797852 18.65307617 C-33.27535507 19.98480407 -33.27535507 19.98480407 -35 23 C-38.625 23.6875 -38.625 23.6875 -42 24 C-39.3033679 21.10804929 -36.77672564 19.11712614 -33.2890625 17.265625 C-32.37995117 16.77739258 -31.47083984 16.28916016 -30.53417969 15.78613281 C-29.57415039 15.27920898 -28.61412109 14.77228516 -27.625 14.25 C-25.64256112 13.18874698 -23.66079039 12.1262449 -21.6796875 11.0625 C-20.71256836 10.54429688 -19.74544922 10.02609375 -18.74902344 9.4921875 C-13.93185174 6.8773959 -9.20766897 4.1078626 -4.484375 1.328125 C-2 0 -2 0 0 0 Z " fill="#5A5A5A" transform="translate(130,37)"/>
<path d="M0 0 C0.33 0.99 0.66 1.98 1 3 C-0.11375 3.53625 -1.2275 4.0725 -2.375 4.625 C-8.35095688 7.6076712 -14.03660252 11.09993926 -19.65625 14.703125 C-22 16 -22 16 -24.3125 15.6875 C-24.869375 15.460625 -25.42625 15.23375 -26 15 C-25.34 15 -24.68 15 -24 15 C-24 14.34 -24 13.68 -24 13 C-22.02 12.67 -20.04 12.34 -18 12 C-18 11.34 -18 10.68 -18 10 C-15.9375 8.625 -15.9375 8.625 -13 7 C-12.44570312 6.65453125 -11.89140625 6.3090625 -11.3203125 5.953125 C-7.55355533 3.64284727 -4.48318404 2.43738381 0 2 C0 1.34 0 0.68 0 0 Z " fill="#999999" transform="translate(186,40)"/>
<path d="M0 0 C0.99 0 1.98 0 3 0 C3 0.99 3 1.98 3 3 C-3.75 6 -3.75 6 -6 6 C-6 6.66 -6 7.32 -6 8 C-6.66 8 -7.32 8 -8 8 C-8 8.66 -8 9.32 -8 10 C-9.11375 10.268125 -10.2275 10.53625 -11.375 10.8125 C-15.21840951 11.65809019 -15.21840951 11.65809019 -17 15 C-17.99 14.67 -18.98 14.34 -20 14 C-20 14.66 -20 15.32 -20 16 C-20.99 15.67 -21.98 15.34 -23 15 C-11.97297297 7 -11.97297297 7 -8 7 C-8 6.34 -8 5.68 -8 5 C-2.25 2 -2.25 2 0 2 C0 1.34 0 0.68 0 0 Z " fill="#9E9E9E" transform="translate(128,72)"/>
<path d="M0 0 C0 2.64 0 5.28 0 8 C-0.33 8 -0.66 8 -1 8 C-1 6.35 -1 4.7 -1 3 C-1.99 3.60328125 -2.98 4.2065625 -4 4.828125 C-18.50755891 13.63071169 -18.50755891 13.63071169 -24 16 C-24.66 15.67 -25.32 15.34 -26 15 C-2.26213592 0 -2.26213592 0 0 0 Z " fill="#2B2B2B" transform="translate(218,71)"/>
<path d="M0 0 C-1.65 0.66 -3.3 1.32 -5 2 C-5 2.66 -5 3.32 -5 4 C-6.43011973 4.86646667 -7.86940619 5.71781829 -9.3125 6.5625 C-10.51326172 7.27599609 -10.51326172 7.27599609 -11.73828125 8.00390625 C-14 9 -14 9 -17 8 C-15.71034824 6.62437146 -14.37310707 5.29233607 -13 4 C-12.34 4 -11.68 4 -11 4 C-11 3.34 -11 2.68 -11 2 C-3.57142857 -1.57142857 -3.57142857 -1.57142857 0 0 Z " fill="#CCCCCC" transform="translate(53,117)"/>
<path d="M0 0 C2.475 0.495 2.475 0.495 5 1 C6.0394775 4.1184325 6.11494838 6.27475586 6.09765625 9.54296875 C6.09443359 10.61611328 6.09121094 11.68925781 6.08789062 12.79492188 C6.07951172 13.91447266 6.07113281 15.03402344 6.0625 16.1875 C6.05798828 17.31865234 6.05347656 18.44980469 6.04882812 19.61523438 C6.03703498 22.41020927 6.0205765 25.2050782 6 28 C5.67 28 5.34 28 5 28 C4.97494385 27.34402832 4.9498877 26.68805664 4.92407227 26.01220703 C4.8082674 23.04959817 4.68547114 20.08731969 4.5625 17.125 C4.52318359 16.09246094 4.48386719 15.05992187 4.44335938 13.99609375 C4.38051758 12.51689453 4.38051758 12.51689453 4.31640625 11.0078125 C4.27974854 10.09660645 4.24309082 9.18540039 4.20532227 8.24658203 C4.13422935 5.96516519 4.13422935 5.96516519 3 4 C2.01 3.67 1.02 3.34 0 3 C0 2.01 0 1.02 0 0 Z " fill="#5E5E5E" transform="translate(34,176)"/>
<path d="M0 0 C0.33 0.99 0.66 1.98 1 3 C-0.55789683 4.13136586 -2.12153857 5.25482321 -3.6875 6.375 C-4.55761719 7.00148438 -5.42773438 7.62796875 -6.32421875 8.2734375 C-8.87068491 9.91655873 -11.10129964 11.12510205 -14 12 C-14.99 11.67 -15.98 11.34 -17 11 C-16.34 11 -15.68 11 -15 11 C-15 10.34 -15 9.68 -15 9 C-14.319375 8.7525 -13.63875 8.505 -12.9375 8.25 C-10.57222311 7.2434992 -8.51447598 6.1740737 -6.3125 4.875 C-3 3 -3 3 -1 3 C-0.67 2.01 -0.34 1.02 0 0 Z " fill="#969696" transform="translate(209,26)"/>
<path d="M0 0 C0.66 0.66 1.32 1.32 2 2 C-2.739872 5.40298503 -7.62267113 7.75347149 -13 10 C-13.33 9.34 -13.66 8.68 -14 8 C-9.38 5.36 -4.76 2.72 0 0 Z " fill="#343434" transform="translate(90,144)"/>
<path d="M0 0 C2 1 2 1 3 3 C0.69 4.65 -1.62 6.3 -4 8 C-5.32 7.34 -6.64 6.68 -8 6 C-5.38485683 3.87961365 -2.80362384 1.86908256 0 0 Z " fill="#C0C0C0" transform="translate(58,110)"/>
<path d="M0 0 C0.66 0.33 1.32 0.66 2 1 C1.49396008 3.16874252 1.00016187 4.99967627 0 7 C-3.0625 7.625 -3.0625 7.625 -6 8 C-5.01 7.01 -4.02 6.02 -3 5 C-4.32 4.67 -5.64 4.34 -7 4 C-1.7265625 0.77734375 -1.7265625 0.77734375 0 0 Z " fill="#B2B2B2" transform="translate(91,91)"/>
<path d="M0 0 C0.66 0.33 1.32 0.66 2 1 C-0.09679104 2.36695222 -2.2010938 3.71846991 -4.3125 5.0625 C-4.90740234 5.45244141 -5.50230469 5.84238281 -6.11523438 6.24414062 C-7.69609635 7.24211495 -9.34594712 8.12868696 -11 9 C-11.99 8.67 -12.98 8.34 -14 8 C-12.23174858 6.85018626 -10.46030479 5.70528078 -8.6875 4.5625 C-7.70136719 3.92441406 -6.71523437 3.28632813 -5.69921875 2.62890625 C-3 1 -3 1 0 0 Z " fill="#616161" transform="translate(166,15)"/>
<path d="M0 0 C-2.18517099 2.40575607 -4.25919671 3.79535581 -7.1875 5.1875 C-7.90292969 5.53167969 -8.61835938 5.87585938 -9.35546875 6.23046875 C-9.89816406 6.48441406 -10.44085938 6.73835938 -11 7 C-11.66 6.34 -12.32 5.68 -13 5 C-11.40377344 3.96679519 -9.79770894 2.94877571 -8.1875 1.9375 C-7.29417969 1.36902344 -6.40085938 0.80054687 -5.48046875 0.21484375 C-3 -1 -3 -1 0 0 Z " fill="#383838" transform="translate(153,110)"/>
<path d="M0 0 C0.33 0 0.66 0 1 0 C1 4.95 1 9.9 1 15 C0.01 15.33 -0.98 15.66 -2 16 C-2.66 15.34 -3.32 14.68 -4 14 C-3.67 13.34 -3.34 12.68 -3 12 C-2.34 12 -1.68 12 -1 12 C-0.67 8.04 -0.34 4.08 0 0 Z " fill="#474747" transform="translate(31,192)"/>
<path d="M0 0 C-0.1875 1.875 -0.1875 1.875 -1 4 C-3.5 5.1875 -3.5 5.1875 -6 6 C-6.33 6.33 -6.66 6.66 -7 7 C-8.66617115 7.04063832 -10.33388095 7.042721 -12 7 C-9.37801226 4.84622436 -7.35595828 3.59927826 -4 3 C-4 2.34 -4 1.68 -4 1 C-2 0 -2 0 0 0 Z " fill="#9F9F9F" transform="translate(52,118)"/>
<path d="M0 0 C0.66 0.33 1.32 0.66 2 1 C-0.15454249 3.35716404 -2.19719874 4.78966144 -5.0625 6.1875 C-6.10083984 6.70376953 -6.10083984 6.70376953 -7.16015625 7.23046875 C-9 8 -9 8 -11 8 C-11 7.34 -11 6.68 -11 6 C-9.21385682 4.96953278 -7.42089982 3.95086764 -5.625 2.9375 C-4.62726563 2.36902344 -3.62953125 1.80054687 -2.6015625 1.21484375 C-1.74304688 0.81394531 -0.88453125 0.41304688 0 0 Z " fill="#A2A2A2" transform="translate(83,99)"/>
<path d="M0 0 C0.66 0.33 1.32 0.66 2 1 C-0.0625 3.5 -0.0625 3.5 -3 6 C-6.8125 6.3125 -6.8125 6.3125 -10 6 C-7.31100548 2.67830089 -3.94687492 1.43522725 0 0 Z " fill="#9C9C9C" transform="translate(103,88)"/>
<path d="M0 0 C0.66 0.99 1.32 1.98 2 3 C-1.96 4.98 -1.96 4.98 -6 7 C-5 3 -5 3 -2.4375 1.25 C-1.2309375 0.63125 -1.2309375 0.63125 0 0 Z " fill="#7E7E7E" transform="translate(54,162)"/>
<path d="M0 0 C0.33 0.99 0.66 1.98 1 3 C-1.31 4.32 -3.62 5.64 -6 7 C-5.37162381 3.35541809 -4.14650034 0 0 0 Z " fill="#EAEAEA" transform="translate(88,57)"/>
<path d="M0 0 C0.66 0.99 1.32 1.98 2 3 C-0.25 4.125 -0.25 4.125 -3 5 C-5.3125 4.125 -5.3125 4.125 -7 3 C-4.69 2.01 -2.38 1.02 0 0 Z " fill="#6F6F6F" transform="translate(137,33)"/>
<path d="M0 0 C2 3 2 3 2 5 C3.32 4.67 4.64 4.34 6 4 C6.33 4.66 6.66 5.32 7 6 C4.625 7.0625 4.625 7.0625 2 8 C1.34 7.67 0.68 7.34 0 7 C0 4.69 0 2.38 0 0 Z " fill="#323232" transform="translate(42,165)"/>
<path d="M0 0 C0.33 0.66 0.66 1.32 1 2 C1.66 2.33 2.32 2.66 3 3 C1.68 3.99 0.36 4.98 -1 6 C-1 5.34 -1 4.68 -1 4 C-1.99 3.67 -2.98 3.34 -4 3 C-2.68 2.01 -1.36 1.02 0 0 Z " fill="#ECECEC" transform="translate(101,183)"/>
<path d="M0 0 C0 0.99 0 1.98 0 3 C-2.3125 4.75 -2.3125 4.75 -5 6 C-5.99 5.67 -6.98 5.34 -8 5 C-5.31158141 2.74754119 -3.35358125 1.11786042 0 0 Z " fill="#C7C7C7" transform="translate(100,87)"/>
<path d="M0 0 C0 0.66 0 1.32 0 2 C-1.75 3.6875 -1.75 3.6875 -4 5 C-6.25 4.6875 -6.25 4.6875 -8 4 C-4.5 0 -4.5 0 0 0 Z " fill="#BABABA" transform="translate(150,59)"/>
<path d="M0 0 C1.65 0.33 3.3 0.66 5 1 C2.94766315 3.2477975 1.99332739 4.0022242 -1 5 C-1.66 4.34 -2.32 3.68 -3 3 C-2.01 2.34 -1.02 1.68 0 1 C0 0.67 0 0.34 0 0 Z " fill="#787878" transform="translate(125,120)"/>
</svg>
