<?xml version="1.0" encoding="UTF-8"?>
<svg version="1.1" xmlns="http://www.w3.org/2000/svg" width="232" height="217">
<path d="M0 0 C76.56 0 153.12 0 232 0 C232 71.61 232 143.22 232 217 C155.44 217 78.88 217 0 217 C0 145.39 0 73.78 0 0 Z " fill="#050505" transform="translate(0,0)"/>
<path d="M0 0 C1.18013672 -0.00257812 2.36027344 -0.00515625 3.57617188 -0.0078125 C11.47196715 0.08055678 17.93899477 0.55807515 24.1875 5.8125 C28.43082799 10.88091954 31.2403702 15.95767873 33.453125 22.1640625 C33.84416412 23.23580215 33.84416412 23.23580215 34.24310303 24.32919312 C34.78803491 25.82872911 35.3290194 27.32970499 35.86621094 28.83203125 C36.68897123 31.12910756 37.52712973 33.42013818 38.3671875 35.7109375 C38.89675613 37.17414551 39.42543338 38.63767651 39.953125 40.1015625 C40.20306213 40.78392975 40.45299927 41.466297 40.71051025 42.16934204 C41.90034585 45.52427361 42.4375 47.88562626 42.4375 51.5 C41.74527344 51.8810791 41.05304688 52.2621582 40.33984375 52.65478516 C26.92159987 60.05117222 13.57076746 67.53211875 0.36132812 75.29736328 C-6.73022401 79.45669651 -13.87858255 83.50256043 -21.0625 87.5 C-29.2845259 92.075664 -37.4483143 96.73570748 -45.5625 101.5 C-53.6766902 106.26429516 -61.84056588 110.9241649 -70.0625 115.5 C-80.45810279 121.28710004 -90.75728338 127.22605679 -101.01953125 133.24609375 C-101.91494629 133.77058105 -102.81036133 134.29506836 -103.73291016 134.83544922 C-105.77824377 136.03864893 -107.81902688 137.24959548 -109.85693359 138.46533203 C-110.9392627 139.10712402 -112.0215918 139.74891602 -113.13671875 140.41015625 C-114.12631592 141.00062744 -115.11591309 141.59109863 -116.13549805 142.19946289 C-118.5625 143.5 -118.5625 143.5 -120.5625 143.5 C-120.98547363 142.29988281 -121.40844727 141.09976563 -121.84423828 139.86328125 C-123.42927398 135.37788646 -125.03272949 130.89925753 -126.64160156 126.42236328 C-127.33310571 124.49021934 -128.01971748 122.55631673 -128.70117188 120.62060547 C-129.68614076 117.82554026 -130.6890033 115.03744245 -131.6953125 112.25 C-131.99245148 111.39446533 -132.28959045 110.53893066 -132.59573364 109.6574707 C-135.12394569 102.74167508 -138.53387627 96.14680492 -144.9375 92.125 C-151.28644469 89.31154608 -158.72485353 89.13065671 -165.5625 88.5 C-163.08329295 85.72660553 -160.35727299 84.09211203 -157.12890625 82.26953125 C-156.01966797 81.63982422 -154.91042969 81.01011719 -153.76757812 80.36132812 C-152.55340721 79.67834666 -151.33921388 78.99540507 -150.125 78.3125 C-148.86233742 77.59752203 -147.59997242 76.8820183 -146.33789062 76.16601562 C-143.71485438 74.67845855 -141.09054997 73.19317587 -138.46533203 71.70947266 C-132.48564542 68.32744754 -126.52507594 64.91207574 -120.5625 61.5 C-118.22937023 60.16631033 -115.8959346 58.83315623 -113.5625 57.5 C-112.3958277 56.83334319 -111.22916103 56.16667653 -110.0625 55.5 C-75.06249998 35.49999999 -75.06249998 35.49999999 -73.31278992 34.50016785 C-72.14515436 33.83294607 -70.9775213 33.16571991 -69.80989075 32.49848938 C-66.9080686 30.84028002 -64.00619455 29.18216166 -61.10424805 27.52416992 C-55.67741141 24.42350251 -50.25095655 21.32217514 -44.82595825 18.21829224 C-42.28655759 16.76544642 -39.74692493 15.31300641 -37.20727539 13.8605957 C-36.00631353 13.17362311 -34.80546312 12.48645565 -33.60473633 11.79907227 C-30.8834238 10.24122224 -28.15987408 8.68862604 -25.42602539 7.15283203 C-23.66770044 6.13792369 -21.93258455 5.07961418 -20.24389648 3.95263672 C-13.70568095 -0.26957132 -7.63337491 -0.18403753 0 0 Z " fill="#7F7F7F" transform="translate(186.5625,8.5)"/>
<path d="M0 0 C56.43 0 112.86 0 171 0 C167.37765364 2.89787709 164.43194772 5.01157867 160.44921875 7.1796875 C158.83152588 8.06732788 158.83152588 8.06732788 157.18115234 8.97290039 C156.02824707 9.60059326 154.8753418 10.22828613 153.6875 10.875 C151.23357686 12.22146301 148.7823325 13.57273977 146.33203125 14.92578125 C145.71320068 15.26731735 145.09437012 15.60885345 144.45678711 15.96073914 C138.54160386 19.23525023 132.70183711 22.63346014 126.875 26.0625 C118.80348112 30.80809656 110.68186396 35.44726022 102.5 40 C94.2779741 44.575664 86.1141857 49.23570748 78 54 C69.8858126 58.76429352 61.72199404 63.42427602 53.5 68 C44.07750508 73.24388087 34.7405453 78.61858412 25.43725586 84.07080078 C19.50196701 87.5469356 13.55313555 90.99501603 7.5625 94.375 C6.89984131 94.75052002 6.23718262 95.12604004 5.55444336 95.51293945 C1.12292088 98 1.12292088 98 0 98 C0 65.66 0 33.32 0 0 Z " fill="#FEFEFE" transform="translate(0,0)"/>
<path d="M0 0 C0 31.02 0 62.04 0 94 C-54.45 94 -108.9 94 -165 94 C-161.37765364 91.10212291 -158.43194772 88.98842133 -154.44921875 86.8203125 C-153.37075684 86.22855225 -152.29229492 85.63679199 -151.18115234 85.02709961 C-150.02824707 84.39940674 -148.8753418 83.77171387 -147.6875 83.125 C-145.23357686 81.77853699 -142.7823325 80.42726023 -140.33203125 79.07421875 C-139.71320068 78.73268265 -139.09437012 78.39114655 -138.45678711 78.03926086 C-132.54160386 74.76474977 -126.70183711 71.36653986 -120.875 67.9375 C-112.80348112 63.19190344 -104.68186396 58.55273978 -96.5 54 C-88.2779741 49.424336 -80.1141857 44.76429252 -72 40 C-62.8624708 34.63484524 -53.64963908 29.42199216 -44.390625 24.26977539 C-35.88086304 19.52245608 -27.45319903 14.6429258 -19.05273438 9.70507812 C-14.69489825 7.14503921 -10.33230005 4.59382558 -5.9375 2.09765625 C-5.22464844 1.69168213 -4.51179687 1.28570801 -3.77734375 0.86743164 C-2 0 -2 0 0 0 Z " fill="#FEFEFE" transform="translate(232,123)"/>
<path d="M0 0 C0 15.51 0 31.02 0 47 C-29.16666667 63.66666667 -58.33333333 80.33333333 -87.5 97 C-88.07745468 97.32997482 -88.65490936 97.65994965 -89.24986267 97.99992371 C-90.4169846 98.66684907 -91.58410903 99.33377004 -92.75123596 100.00068665 C-95.66095767 101.66335941 -98.57063635 103.32610738 -101.48022461 104.98901367 C-106.81293207 108.03669563 -112.1459962 111.08374644 -117.48060608 114.12809753 C-119.91089748 115.51505498 -122.34098956 116.90236137 -124.77102661 118.2897644 C-125.95770702 118.96722928 -127.1444534 119.64457862 -128.33126831 120.32180786 C-134.19090699 123.66591665 -140.04497838 127.01853349 -145.875 130.4140625 C-147.20229126 131.18689575 -147.20229126 131.18689575 -148.55639648 131.9753418 C-150.17463531 132.91948523 -151.79144249 133.86608873 -153.40649414 134.81567383 C-156.24573019 136.47349591 -158.87122713 137.95707571 -162 139 C-162 123.49 -162 107.98 -162 92 C-158.37 89.97875 -154.74 87.9575 -151 85.875 C-142.27972802 81.00480604 -133.61312261 76.05783934 -125 71 C-115.85089669 65.62798054 -106.62596802 60.40923438 -97.35546875 55.25 C-90.18646305 51.25035548 -83.07907237 47.15651956 -76 43 C-67.8858112 38.23570566 -59.72196408 33.57577953 -51.5 29 C-40.11273023 22.66176065 -28.85453134 16.11682476 -17.61132812 9.52734375 C-13.93694735 7.37822949 -10.25409867 5.24438668 -6.5625 3.125 C-5.49128906 2.50882812 -4.42007813 1.89265625 -3.31640625 1.2578125 C-1 0 -1 0 0 0 Z " fill="#7F7F7F" transform="translate(230,67)"/>
<path d="M0 0 C24 0 24 0 32 4 C33.85205078 6.48608398 33.85205078 6.48608398 35.0703125 9.30859375 C35.54629883 10.37706543 36.02228516 11.44553711 36.51269531 12.54638672 C37.00350586 13.6860791 37.49431641 14.82577148 38 16 C38.85055906 17.73592045 39.70116146 19.47182058 40.55369568 21.20677185 C53.42124122 48.06412252 52.03479526 72.30933609 51 102 C34.17 102 17.34 102 0 102 C0 68.34 0 34.68 0 0 Z " fill="#7F7F7F" transform="translate(9,106)"/>
<path d="M0 0 C11.88 0 23.76 0 36 0 C36 13.2 36 26.4 36 40 C34.23925434 37.35888152 33.30480157 35.34402763 32.265625 32.39453125 C31.93820313 31.49283203 31.61078125 30.59113281 31.2734375 29.66210938 C30.59913867 27.78462465 29.93227763 25.90444946 29.2734375 24.02148438 C26.17925991 15.57246068 22.58413407 8.52281078 14.125 4.5625 C9.31962656 2.35154888 5.27029434 1.20270363 0 1 C0 0.67 0 0.34 0 0 Z " fill="#F9F9F9" transform="translate(196,0)"/>
</svg>
