<?xml version="1.0" encoding="UTF-8"?>
<svg version="1.1" xmlns="http://www.w3.org/2000/svg" width="18" height="19">
<path d="M0 0 C2 1 4 2 6 3 C6 4.32 6 5.64 6 7 C3.69 7.66 1.38 8.32 -1 9 C-1 9.99 -1 10.98 -1 12 C-3.375 11.75 -3.375 11.75 -6 11 C-7.375 9.0625 -7.375 9.0625 -8 7 C-7 5 -7 5 -4.5625 4.0625 C-1.70136041 3.15452711 -1.70136041 3.15452711 0 0 Z " fill="#BDBDBD" transform="translate(10,3)"/>
<path d="M0 0 C2 1 4 2 6 3 C6 4.32 6 5.64 6 7 C4.35 7.33 2.7 7.66 1 8 C0.67 7.01 0.34 6.02 0 5 C0.66 4.34 1.32 3.68 2 3 C1.34 2.67 0.68 2.34 0 2 C-0.33 2.99 -0.66 3.98 -1 5 C-1.66 4.67 -2.32 4.34 -3 4 C-2.01 2.68 -1.02 1.36 0 0 Z " fill="#9E9E9F" transform="translate(10,3)"/>
</svg>
