<?xml version="1.0" encoding="UTF-8"?>
<svg version="1.1" xmlns="http://www.w3.org/2000/svg" width="25" height="18">
<path d="M0 0 C8.25 0 16.5 0 25 0 C25 5.94 25 11.88 25 18 C16.75 18 8.5 18 0 18 C0 12.06 0 6.12 0 0 Z " fill="#767676" transform="translate(0,0)"/>
<path d="M0 0 C8.25 0 16.5 0 25 0 C25 5.94 25 11.88 25 18 C20.71 18 16.42 18 12 18 C12 17.34 12 16.68 12 16 C12.56589844 15.87882813 13.13179687 15.75765625 13.71484375 15.6328125 C14.44832031 15.46523437 15.18179687 15.29765625 15.9375 15.125 C17.03384766 14.88136719 17.03384766 14.88136719 18.15234375 14.6328125 C20.20700294 14.17038477 20.20700294 14.17038477 21 12 C20.34 11.67 19.68 11.34 19 11 C19.33 10.01 19.66 9.02 20 8 C19.236875 7.54625 18.47375 7.0925 17.6875 6.625 C15.76367186 5.46175508 13.87058776 4.2470585 12 3 C11.67 3.66 11.34 4.32 11 5 C8.03 4.505 8.03 4.505 5 4 C4.67 4.99 4.34 5.98 4 7 C2.68 7 1.36 7 0 7 C0 4.69 0 2.38 0 0 Z " fill="#767676" transform="translate(0,0)"/>
<path d="M0 0 C0 4 0 4 -1 7 C-3.64 7.33 -6.28 7.66 -9 8 C-9 8.66 -9 9.32 -9 10 C-9.99 9.67 -10.98 9.34 -12 9 C-12 8.34 -12 7.68 -12 7 C-10.68 7 -9.36 7 -8 7 C-8.99 6.34 -9.98 5.68 -11 5 C-7.7 0.23333333 -7.7 0.23333333 -4.375 -0.875 C-2 -1 -2 -1 0 0 Z " fill="#626262" transform="translate(21,8)"/>
<path d="M0 0 C0 2.64 0 5.28 0 8 C-4.29 8 -8.58 8 -13 8 C-13 7.34 -13 6.68 -13 6 C-12.43410156 5.89042969 -11.86820313 5.78085938 -11.28515625 5.66796875 C-10.18494141 5.43013672 -10.18494141 5.43013672 -9.0625 5.1875 C-8.33160156 5.03667969 -7.60070312 4.88585937 -6.84765625 4.73046875 C-6.23792969 4.48941406 -5.62820312 4.24835937 -5 4 C-4.67 3.01 -4.34 2.02 -4 1 C-2 0 -2 0 0 0 Z " fill="#EFEFEF" transform="translate(25,10)"/>
<path d="M0 0 C4.29 0 8.58 0 13 0 C8.7826087 4.2173913 8.7826087 4.2173913 5 5 C4.67 5.66 4.34 6.32 4 7 C2.68 7 1.36 7 0 7 C0 4.69 0 2.38 0 0 Z " fill="#F0F0F0" transform="translate(0,0)"/>
<path d="M0 0 C3.3 0 6.6 0 10 0 C10 1.98 10 3.96 10 6 C5.545 5.01 5.545 5.01 1 4 C0.67 2.68 0.34 1.36 0 0 Z " fill="#F2F2F2" transform="translate(15,0)"/>
<path d="M0 0 C3.3125 0.1875 3.3125 0.1875 7 1 C8.9375 3.5625 8.9375 3.5625 10 6 C6.7 6 3.4 6 0 6 C0 4.02 0 2.04 0 0 Z " fill="#F3F3F3" transform="translate(0,12)"/>
<path d="M0 0 C2.88437779 1.29299694 4.87219421 2.65941363 7 5 C4.66785852 6.20628008 2.50357861 7.1654738 0 8 C-0.33 7.01 -0.66 6.02 -1 5 C-1.99 5.33 -2.98 5.66 -4 6 C-4.99 5.34 -5.98 4.68 -7 4 C-6.1028125 3.566875 -6.1028125 3.566875 -5.1875 3.125 C-2.80672208 1.95257974 -2.80672208 1.95257974 0 0 Z " fill="#808080" transform="translate(12,3)"/>
<path d="M0 0 C0.99 0.33 1.98 0.66 3 1 C3 1.99 3 2.98 3 4 C3.99 4.33 4.98 4.66 6 5 C6 5.66 6 6.32 6 7 C3.50638429 5.79618552 1.31856917 4.54571278 -1 3 C-1.33 3.66 -1.66 4.32 -2 5 C-2.66 4.34 -3.32 3.68 -4 3 C-2.1875 1.4375 -2.1875 1.4375 0 0 Z " fill="#5D5D5D" transform="translate(13,0)"/>
<path d="M0 0 C1.32 0.33 2.64 0.66 4 1 C4 1.99 4 2.98 4 4 C-0.625 6.125 -0.625 6.125 -4 5 C-3.525625 4.54625 -3.05125 4.0925 -2.5625 3.625 C-0.90972192 2.06741796 -0.90972192 2.06741796 0 0 Z " fill="#5D5D5D" transform="translate(5,3)"/>
<path d="M0 0 C2.475 0.495 2.475 0.495 5 1 C5 1.66 5 2.32 5 3 C5.33 3.66 5.66 4.32 6 5 C4.35 5.33 2.7 5.66 1 6 C0.67 4.02 0.34 2.04 0 0 Z " fill="#8F8F8F" transform="translate(7,10)"/>
<path d="M0 0 C-0.33 0.99 -0.66 1.98 -1 3 C-1.99 3.33 -2.98 3.66 -4 4 C-4 3.34 -4 2.68 -4 2 C-5.32 1.34 -6.64 0.68 -8 0 C-2.25 -1.125 -2.25 -1.125 0 0 Z " fill="#565656" transform="translate(13,8)"/>
<path d="M0 0 C0.66 0.33 1.32 0.66 2 1 C1.34 2.32 0.68 3.64 0 5 C-0.66 5 -1.32 5 -2 5 C-2 4.34 -2 3.68 -2 3 C-2.99 2.67 -3.98 2.34 -5 2 C-4.01 1.67 -3.02 1.34 -2 1 C-1.34 0.67 -0.68 0.34 0 0 Z " fill="#575757" transform="translate(19,7)"/>
</svg>
