<?xml version="1.0" encoding="UTF-8"?>
<svg version="1.1" xmlns="http://www.w3.org/2000/svg" width="64" height="64">
<path d="M0 0 C2.67578125 1.33984375 2.67578125 1.33984375 5.3125 2.9375 C6.19550781 3.46214844 7.07851563 3.98679687 7.98828125 4.52734375 C8.65214844 5.01332031 9.31601562 5.49929687 10 6 C10 6.66 10 7.32 10 8 C10.99 8.33 11.98 8.66 13 9 C13.020625 9.74378906 13.04125 10.48757812 13.0625 11.25390625 C14.23413514 14.68582084 15.87052795 15.38844425 19.015625 16.99023438 C20.33702686 17.62102168 21.65994775 18.24863678 22.984375 18.87304688 C24.875 19.83984375 24.875 19.83984375 28 22 C28.9375 25.25390625 28.9375 25.25390625 29 28 C22.12040557 32.24852697 15.24273057 36.49577284 8.28125 40.609375 C6.75657224 41.53880186 5.25570753 42.50842514 3.78125 43.515625 C3.0903125 43.98484375 2.399375 44.4540625 1.6875 44.9375 C1.09324219 45.35902344 0.49898437 45.78054687 -0.11328125 46.21484375 C-2.82197553 47.34206435 -4.23391926 46.92202691 -7 46 C-9.61328125 44.29296875 -9.61328125 44.29296875 -12.3125 42.1875 C-16.10794658 39.32694253 -19.70471482 36.98973716 -24.0078125 35.0078125 C-27.89392999 33.04189424 -31.42828489 30.48035772 -35 28 C-34.90625 25.25390625 -34.90625 25.25390625 -34 22 C-31.79798741 20.36328903 -29.90844771 19.16217777 -27.5 17.9375 C-22.71458698 15.65112485 -22.71458698 15.65112485 -20.09375 11.25390625 C-20.0628125 10.51011719 -20.031875 9.76632813 -20 9 C-19.360625 8.896875 -18.72125 8.79375 -18.0625 8.6875 C-17.381875 8.460625 -16.70125 8.23375 -16 8 C-15.67 7.01 -15.34 6.02 -15 5 C-12.890625 3.359375 -12.890625 3.359375 -10.25 1.75 C-9.38890625 1.20859375 -8.5278125 0.6671875 -7.640625 0.109375 C-4.45917434 -1.22721078 -3.23508433 -1.10527842 0 0 Z M-24.125 22 C-25.49011719 22.8353125 -25.49011719 22.8353125 -26.8828125 23.6875 C-27.58148438 24.120625 -28.28015625 24.55375 -29 25 C-25.91696882 28.24185399 -23.07204563 30.10439255 -19 32 C-14.78502567 31.17756598 -11.49194133 28.43623814 -8 26 C-10.75170751 23.0444623 -13.41970299 20.88436685 -17 19 C-19.94386623 19 -21.63886498 20.47007076 -24.125 22 Z M8.546875 20.15234375 C6.26896824 21.67452987 4.11462142 23.25939325 2 25 C4.74237577 27.94551472 7.28835555 30.37049756 11 32 C15.19837098 31.03114516 18.49898532 28.44256838 22 26 C18.48987213 21.92825168 14.09087174 17.54807777 8.546875 20.15234375 Z " fill="#000000" transform="translate(35,9)"/>
</svg>
